<svg width="60" height="60" viewBox="0 0 60 60" fill="none" xmlns="http://www.w3.org/2000/svg">
<path d="M48.3327 29.0003C48.3327 39.1258 40.1248 47.3337 29.9993 47.3337C19.8738 47.3337 11.666 39.1258 11.666 29.0003C11.666 18.8748 19.8738 10.667 29.9993 10.667C40.1248 10.667 48.3327 18.8748 48.3327 29.0003Z" stroke="#FFE9D9" stroke-width="2.75" stroke-linecap="round" stroke-linejoin="round"/>
<path d="M29.5 23.3333V16.359M34.75 26.8205L41.75 24.2051M33 33.7949L36.5 39.0256M26 32.9231L22.5 37.2821M24.25 27.6923L17.25 25.9487M24.25 12L29.5298 15.6999L34.75 12M12 29.959L17.5948 25.8424L14.7213 19.3579M42.5725 40.5129L35.828 39.2959L33.4655 46M43.5525 18.4443L41.4053 24.0133L47 28.1282M22.5175 44.966L22.5892 37.5732L15.5052 37.65M28.989 23.9418C29.1356 23.8299 29.3152 23.7692 29.5 23.7692C29.6848 23.7692 29.8644 23.8299 30.011 23.9418L33.9538 26.9147C34.1039 27.0308 34.2147 27.19 34.271 27.3709C34.3274 27.5518 34.3266 27.7455 34.2688 27.9259L32.7638 32.7348C32.7107 32.9132 32.6018 33.0701 32.4528 33.1824C32.3039 33.2947 32.1228 33.3566 31.936 33.359H27.064C26.8772 33.3566 26.6961 33.2947 26.5472 33.1824C26.3982 33.0701 26.2893 32.9132 26.2363 32.7348L24.7312 27.9242C24.6738 27.744 24.6732 27.5506 24.7295 27.3701C24.7859 27.1896 24.8964 27.0306 25.0463 26.9147L28.989 23.9418Z" stroke="#FFE9D9" stroke-width="2.75" stroke-linecap="round" stroke-linejoin="round"/>
</svg>
