<svg width="1844" height="365" viewBox="0 0 1844 365" fill="none" xmlns="http://www.w3.org/2000/svg">
<path d="M0.573767 7.86618H91.1459C119.755 7.86618 141.392 10.0945 156.056 14.5513C170.864 19.008 182.796 28.0652 191.853 41.7229C200.911 55.2368 205.439 77.0891 205.439 107.28C205.439 127.694 202.204 141.927 195.735 149.978C189.409 158.029 176.83 164.211 157.997 168.524C178.986 173.268 193.219 181.175 200.695 192.245C208.171 203.171 211.909 219.992 211.909 242.707V275.054C211.909 298.631 209.177 316.099 203.714 327.456C198.395 338.814 189.841 346.577 178.052 350.746C166.263 354.915 142.111 357 105.594 357H0.573767V7.86618ZM91.3615 67.6006V145.234C95.2432 145.09 98.2622 145.018 100.419 145.018C109.332 145.018 115.011 142.862 117.455 138.549C119.899 134.092 121.121 121.513 121.121 100.81C121.121 89.8842 120.115 82.2647 118.102 77.9517C116.089 73.495 113.429 70.6916 110.123 69.5415C106.96 68.3913 100.706 67.7444 91.3615 67.6006ZM91.3615 199.577V297.266C104.157 296.834 112.279 294.822 115.73 291.227C119.324 287.633 121.121 278.792 121.121 264.703V232.14C121.121 217.188 119.539 208.131 116.377 204.968C113.214 201.805 104.875 200.008 91.3615 199.577ZM388.214 7.86618L440.185 357H347.241L342.712 294.246H310.149L304.758 357H210.735L256.884 7.86618H388.214ZM340.124 232.356C335.524 192.82 330.923 144.012 326.323 85.9307C317.122 152.638 311.371 201.446 309.071 232.356H340.124ZM722.589 7.86618V357H643.23V121.297L611.53 357H555.246L521.82 126.688V357H442.462V7.86618H559.99C563.44 28.8559 567.106 53.5835 570.988 82.049L583.496 170.896L604.198 7.86618H722.589ZM745.784 7.86618H836.356C864.965 7.86618 886.602 10.0945 901.266 14.5513C916.073 19.008 928.006 28.0652 937.063 41.7229C946.12 55.2368 950.649 77.0891 950.649 107.28C950.649 127.694 947.414 141.927 940.945 149.978C934.619 158.029 922.04 164.211 903.207 168.524C924.196 173.268 938.429 181.175 945.905 192.245C953.381 203.171 957.118 219.992 957.118 242.707V275.054C957.118 298.631 954.387 316.099 948.924 327.456C943.605 338.814 935.051 346.577 923.262 350.746C911.473 354.915 887.32 357 850.804 357H745.784V7.86618ZM836.571 67.6006V145.234C840.453 145.09 843.472 145.018 845.629 145.018C854.542 145.018 860.221 142.862 862.665 138.549C865.109 134.092 866.331 121.513 866.331 100.81C866.331 89.8842 865.324 82.2647 863.312 77.9517C861.299 73.495 858.639 70.6916 855.333 69.5415C852.17 68.3913 845.916 67.7444 836.571 67.6006ZM836.571 199.577V297.266C849.366 296.834 857.489 294.822 860.94 291.227C864.534 287.633 866.331 278.792 866.331 264.703V232.14C866.331 217.188 864.749 208.131 861.586 204.968C858.424 201.805 850.085 200.008 836.571 199.577ZM1184.1 212.3C1184.1 247.379 1183.24 272.25 1181.51 286.914C1179.93 301.435 1174.76 314.733 1165.99 326.809C1157.36 338.886 1145.64 348.158 1130.84 354.628C1116.03 361.097 1098.78 364.332 1079.08 364.332C1060.39 364.332 1043.57 361.313 1028.62 355.275C1013.81 349.093 1001.88 339.892 992.821 327.672C983.764 315.452 978.373 302.154 976.647 287.777C974.922 273.401 974.06 248.242 974.06 212.3V152.566C974.06 117.487 974.85 92.6877 976.432 78.1674C978.157 63.5033 983.333 50.1332 991.958 38.0569C1000.73 25.9806 1012.52 16.7077 1027.32 10.2383C1042.13 3.76888 1059.38 0.534159 1079.08 0.534159C1097.77 0.534159 1114.52 3.62511 1129.33 9.80702C1144.28 15.8452 1156.28 24.9742 1165.34 37.1943C1174.4 49.4143 1179.79 62.7126 1181.51 77.0891C1183.24 91.4657 1184.1 116.625 1184.1 152.566V212.3ZM1093.31 97.5757C1093.31 81.3302 1092.38 70.9791 1090.51 66.5224C1088.78 61.9219 1085.12 59.6217 1079.51 59.6217C1074.77 59.6217 1071.1 61.4906 1068.51 65.2285C1066.07 68.8226 1064.85 79.605 1064.85 97.5757V260.605C1064.85 280.876 1065.64 293.384 1067.22 298.128C1068.94 302.872 1072.83 305.245 1078.86 305.245C1085.05 305.245 1089 302.513 1090.73 297.05C1092.45 291.587 1093.31 278.576 1093.31 258.018V97.5757ZM1397.28 113.534H1312.96V87.6559C1312.96 75.5796 1311.88 67.8882 1309.73 64.5816C1307.57 61.275 1303.98 59.6217 1298.95 59.6217C1293.48 59.6217 1289.31 61.85 1286.44 66.3067C1283.71 70.7635 1282.34 77.5204 1282.34 86.5776C1282.34 98.2226 1283.92 106.992 1287.09 112.887C1290.1 118.781 1298.66 125.897 1312.75 134.236C1353.15 158.245 1378.59 177.94 1389.09 193.323C1399.58 208.706 1404.83 233.506 1404.83 267.722C1404.83 292.593 1401.88 310.923 1395.99 322.712C1390.24 334.501 1379.02 344.421 1362.35 352.471C1345.67 360.378 1326.26 364.332 1304.12 364.332C1279.83 364.332 1259.05 359.732 1241.8 350.531C1224.69 341.33 1213.48 329.613 1208.16 315.38C1202.84 301.147 1200.18 280.948 1200.18 254.783V231.924H1284.5V274.407C1284.5 287.49 1285.65 295.9 1287.95 299.638C1290.39 303.376 1294.63 305.245 1300.67 305.245C1306.71 305.245 1311.17 302.872 1314.04 298.128C1317.06 293.384 1318.57 286.339 1318.57 276.995C1318.57 256.436 1315.77 242.994 1310.16 236.669C1304.41 230.343 1290.25 219.776 1267.68 204.968C1245.11 190.017 1230.15 179.162 1222.82 172.405C1215.49 165.649 1209.38 156.304 1204.49 144.371C1199.75 132.439 1197.38 117.2 1197.38 98.6539C1197.38 71.9136 1200.75 52.3615 1207.51 39.9977C1214.41 27.6339 1225.48 18.0016 1240.72 11.1009C1255.96 4.05641 1274.36 0.534159 1295.93 0.534159C1319.5 0.534159 1339.56 4.34394 1356.09 11.9635C1372.77 19.583 1383.77 29.2153 1389.09 40.8603C1394.55 52.3615 1397.28 71.9855 1397.28 99.7322V113.534ZM1612.62 113.534H1528.3V87.6559C1528.3 75.5796 1527.22 67.8882 1525.07 64.5816C1522.91 61.275 1519.32 59.6217 1514.28 59.6217C1508.82 59.6217 1504.65 61.85 1501.78 66.3067C1499.04 70.7635 1497.68 77.5204 1497.68 86.5776C1497.68 98.2226 1499.26 106.992 1502.42 112.887C1505.44 118.781 1514 125.897 1528.08 134.236C1568.48 158.245 1593.93 177.94 1604.42 193.323C1614.92 208.706 1620.17 233.506 1620.17 267.722C1620.17 292.593 1617.22 310.923 1611.32 322.712C1605.57 334.501 1594.36 344.421 1577.68 352.471C1561.01 360.378 1541.6 364.332 1519.46 364.332C1495.16 364.332 1474.39 359.732 1457.14 350.531C1440.03 341.33 1428.82 329.613 1423.5 315.38C1418.18 301.147 1415.52 280.948 1415.52 254.783V231.924H1499.84V274.407C1499.84 287.49 1500.99 295.9 1503.29 299.638C1505.73 303.376 1509.97 305.245 1516.01 305.245C1522.05 305.245 1526.5 302.872 1529.38 298.128C1532.4 293.384 1533.91 286.339 1533.91 276.995C1533.91 256.436 1531.1 242.994 1525.5 236.669C1519.75 230.343 1505.59 219.776 1483.01 204.968C1460.44 190.017 1445.49 179.162 1438.16 172.405C1430.83 165.649 1424.72 156.304 1419.83 144.371C1415.09 132.439 1412.71 117.2 1412.71 98.6539C1412.71 71.9136 1416.09 52.3615 1422.85 39.9977C1429.75 27.6339 1440.82 18.0016 1456.06 11.1009C1471.3 4.05641 1489.7 0.534159 1511.26 0.534159C1534.84 0.534159 1554.9 4.34394 1571.43 11.9635C1588.11 19.583 1599.1 29.2153 1604.42 40.8603C1609.89 52.3615 1612.62 71.9855 1612.62 99.7322V113.534ZM1843.05 212.3C1843.05 247.379 1842.19 272.25 1840.46 286.914C1838.88 301.435 1833.71 314.733 1824.94 326.809C1816.31 338.886 1804.59 348.158 1789.79 354.628C1774.98 361.097 1757.73 364.332 1738.03 364.332C1719.34 364.332 1702.52 361.313 1687.57 355.275C1672.76 349.093 1660.83 339.892 1651.77 327.672C1642.71 315.452 1637.32 302.154 1635.6 287.777C1633.87 273.401 1633.01 248.242 1633.01 212.3V152.566C1633.01 117.487 1633.8 92.6877 1635.38 78.1674C1637.11 63.5033 1642.28 50.1332 1650.91 38.0569C1659.68 25.9806 1671.47 16.7077 1686.28 10.2383C1701.08 3.76888 1718.34 0.534159 1738.03 0.534159C1756.72 0.534159 1773.47 3.62511 1788.28 9.80702C1803.23 15.8452 1815.23 24.9742 1824.29 37.1943C1833.35 49.4143 1838.74 62.7126 1840.46 77.0891C1842.19 91.4657 1843.05 116.625 1843.05 152.566V212.3ZM1752.26 97.5757C1752.26 81.3302 1751.33 70.9791 1749.46 66.5224C1747.74 61.9219 1744.07 59.6217 1738.46 59.6217C1733.72 59.6217 1730.05 61.4906 1727.46 65.2285C1725.02 68.8226 1723.8 79.605 1723.8 97.5757V260.605C1723.8 280.876 1724.59 293.384 1726.17 298.128C1727.9 302.872 1731.78 305.245 1737.82 305.245C1744 305.245 1747.95 302.513 1749.68 297.05C1751.4 291.587 1752.26 278.576 1752.26 258.018V97.5757Z" fill="#A93F00"/>
</svg>
