<svg width="60" height="60" viewBox="0 0 60 60" fill="none" xmlns="http://www.w3.org/2000/svg">
<path d="M27.375 30.521L30 24.7918L32.6042 30.521L38.3333 33.1252L32.6042 35.7502L30 41.4585L27.375 35.7502L21.6667 33.1252L27.375 30.521ZM38.3333 11.2502V7.0835H42.5V11.2502H44.5833C45.6875 11.2502 46.75 11.6877 47.5208 12.4793C48.3125 13.2502 48.75 14.3127 48.75 15.4168V44.5835C48.75 45.6877 48.3125 46.7502 47.5208 47.521C46.75 48.3127 45.6875 48.7502 44.5833 48.7502H15.4167C14.3125 48.7502 13.25 48.3127 12.4792 47.521C11.6875 46.7502 11.25 45.6877 11.25 44.5835V15.4168C11.25 14.3127 11.6875 13.2502 12.4792 12.4793C13.25 11.6877 14.3125 11.2502 15.4167 11.2502H17.5V7.0835H21.6667V11.2502H38.3333ZM15.4167 21.6668V44.5835H44.5833V21.6668H15.4167Z" fill="#FFE9D9"/>
</svg>
