<svg width="87" height="87" viewBox="0 0 87 87" fill="none" xmlns="http://www.w3.org/2000/svg">
<g clip-path="url(#clip0_106_530)">
<path d="M70.7678 18.8426C65.6779 16.5147 60.2725 14.818 54.6301 13.8711C53.92 15.0943 53.1307 16.7514 52.5782 18.0535C46.5771 17.1854 40.6191 17.1854 34.7007 18.0535C34.1483 16.7514 33.3197 15.0943 32.6489 13.8711C26.9673 14.818 21.5618 16.5147 16.5074 18.8426C6.28826 33.9148 3.52633 48.6319 4.90731 63.1518C11.6938 68.084 18.2436 71.0825 24.6789 73.0557C26.2572 70.9249 27.6776 68.6362 28.9008 66.2295C26.5728 65.3614 24.3633 64.2962 22.2326 63.0336C22.785 62.6391 23.3374 62.2053 23.8504 61.771C36.7131 67.6502 50.6453 67.6502 63.3498 61.771C63.9023 62.2053 64.4153 62.6391 64.9678 63.0336C62.8371 64.2962 60.6275 65.3614 58.2997 66.2295C59.5229 68.6362 60.9432 70.9249 62.5214 73.0557C68.9527 71.0825 75.542 68.084 82.293 63.1518C83.9895 46.3438 79.606 31.7449 70.7678 18.8426ZM30.6763 54.1954C26.8095 54.1954 23.653 50.6838 23.653 46.3833C23.653 42.0824 26.7306 38.5708 30.6763 38.5708C34.5824 38.5708 37.7782 42.0824 37.6994 46.3833C37.6994 50.6838 34.5824 54.1954 30.6763 54.1954ZM56.6032 54.1954C52.7362 54.1954 49.5756 50.6838 49.5756 46.3833C49.5756 42.0824 52.6574 38.5708 56.6032 38.5708C60.5093 38.5708 63.7052 42.0824 63.626 46.3833C63.626 50.6838 60.5487 54.1954 56.6032 54.1954Z" fill="white"/>
</g>
<defs>
<clipPath id="clip0_106_530">
<rect width="87.0006" height="87.0006" fill="white"/>
</clipPath>
</defs>
</svg>
