<svg width="87" height="18" viewBox="0 0 87 18" fill="none" xmlns="http://www.w3.org/2000/svg">
<path d="M13.3496 1.23535C14.1708 1.23535 14.8777 1.52644 15.457 2.10352C16.0363 2.68061 16.3281 3.38523 16.3281 4.2041V13.7959C16.3281 14.615 16.035 15.3196 15.457 15.8965C14.8777 16.4736 14.1708 16.7646 13.3496 16.7646H0.742188V1.23535H13.3496ZM3.7207 4.00293C3.6648 4.00302 3.62173 4.02003 3.57812 4.06348C3.53466 4.1069 3.51855 4.14923 3.51855 4.2041V13.7959C3.51855 13.8508 3.53461 13.8931 3.57812 13.9365C3.62173 13.98 3.6648 13.997 3.7207 13.9971H13.3496C13.4057 13.9971 13.4485 13.98 13.4922 13.9365C13.5359 13.893 13.5527 13.8509 13.5527 13.7959V4.2041C13.5527 4.1491 13.5359 4.10701 13.4922 4.06348C13.4485 4.01993 13.4057 4.00293 13.3496 4.00293H3.7207Z" fill="#151515" stroke="#151515" stroke-width="0.515151"/>
<path d="M21.2505 1.23535L21.3277 1.32812L26.9214 8.0332L32.4947 1.32812L32.5718 1.23535H35.6187V16.7646H32.8697V5.20801L27.1197 12.1055L26.9214 12.3428L26.7242 12.1055L20.9732 5.20605V16.7646H18.2242V1.23535H21.2505Z" fill="#151515" stroke="#151515" stroke-width="0.515151"/>
<path d="M39.9691 1.23535L40.0463 1.32715L49.723 12.7988V1.23535H52.4984V16.7646H49.4427L49.3646 16.6729L39.6888 5.20117V16.7646H36.9125V1.23535H39.9691Z" fill="#151515" stroke="#151515" stroke-width="0.515151"/>
<path d="M57.4517 1.23535L57.5289 1.32715L67.2056 12.7988V1.23535H69.981V16.7646H66.9244L66.8472 16.6729L57.1714 5.20117V16.7646H54.3951V1.23535H57.4517Z" fill="#151515" stroke="#151515" stroke-width="0.515151"/>
<path d="M86.2572 1.23535V4.00293H79.8529V16.7646H77.0765V4.00293H70.6713V1.23535H86.2572Z" fill="#151515" stroke="#151515" stroke-width="0.515151"/>
</svg>
