<svg width="168" height="32" viewBox="0 0 168 32" fill="none" xmlns="http://www.w3.org/2000/svg">
<path d="M25.6401 0.927734C27.2339 0.92784 28.6066 1.49127 29.731 2.61133C30.8554 3.73151 31.4223 5.09997 31.4224 6.68945V25.3096C31.4224 26.8003 30.922 28.096 29.9351 29.1748L29.731 29.3877C28.6066 30.5078 27.2339 31.0712 25.6401 31.0713H1.1665V0.927734H25.6401ZM6.94873 6.2998C6.83978 6.2998 6.75626 6.33244 6.67139 6.41699C6.58694 6.50126 6.55525 6.58302 6.55518 6.68945V25.3096C6.55518 25.4163 6.58662 25.4985 6.67139 25.583C6.75626 25.6676 6.83978 25.7002 6.94873 25.7002H25.6401C25.7488 25.7001 25.8318 25.6673 25.9165 25.583C26.0013 25.4985 26.0337 25.4163 26.0337 25.3096V6.68945C26.0336 6.58291 26.0011 6.50136 25.9165 6.41699C25.8317 6.33256 25.7489 6.29989 25.6401 6.2998H6.94873Z" fill="#A93F00" stroke="#A93F00"/>
<path d="M40.9761 0.927734L41.1255 1.10742L51.9829 14.125L62.8032 1.1084L62.9536 0.927734H68.8677V31.0713H63.5317V8.63672L52.3687 22.0273L51.9849 22.4883L51.6011 22.0273L40.439 8.6377V31.0713H35.1021V0.927734H40.9761Z" fill="#A93F00" stroke="#A93F00"/>
<path d="M77.313 0.927734L77.4624 1.10547L96.2466 23.375V0.927734H101.635V31.0713H95.7017L95.5513 30.8945L76.7681 8.625V31.0713H71.3794V0.927734H77.313Z" fill="#A93F00" stroke="#A93F00"/>
<path d="M111.25 0.927734L111.399 1.10547L130.183 23.375V0.927734H135.572V31.0713H129.638L129.488 30.8945L110.705 8.625V31.0713H105.316V0.927734H111.25Z" fill="#A93F00" stroke="#A93F00"/>
<path d="M167.167 0.927734V6.2998H154.733V31.0713H149.345V6.2998H136.911V0.927734H167.167Z" fill="#A93F00" stroke="#A93F00"/>
</svg>
