<svg width="1849" height="370" viewBox="0 0 1849 370" fill="none" xmlns="http://www.w3.org/2000/svg">
<mask id="path-1-outside-1_106_199" maskUnits="userSpaceOnUse" x="-0.353516" y="0" width="1850" height="370" fill="black">
<rect fill="white" x="-0.353516" width="1850" height="370"/>
<path d="M6.37645 358V11.4843H96.6417C111.472 11.4843 125.447 12.6251 138.566 14.9066C151.97 17.1882 163.806 21.6088 174.073 28.1684C184.34 34.4427 192.326 43.5691 198.03 55.5474C204.019 67.2405 207.013 82.7838 207.013 102.177C207.013 116.152 204.874 127.988 200.596 137.684C196.604 147.096 190.757 154.654 183.057 160.358C175.642 166.062 166.658 169.912 156.105 171.908C169.51 173.619 180.775 178.04 189.901 185.17C199.028 192.015 205.873 201.284 210.436 212.977C215.284 224.67 217.708 238.787 217.708 255.329C217.708 273.296 215.284 288.839 210.436 301.959C205.873 314.792 199.17 325.345 190.329 333.616C181.488 341.886 170.508 348.018 157.389 352.011C144.555 356.004 129.725 358 112.898 358H6.37645ZM82.9521 304.525H99.2084C116.035 304.525 127.586 300.247 133.86 291.691C140.42 283.135 143.699 270.587 143.699 254.045C143.699 240.926 142.273 230.516 139.421 222.816C136.569 215.116 131.864 209.554 125.304 206.132C118.745 202.424 109.903 200.571 98.7806 200.571H82.9521V304.525ZM82.9521 150.091H97.9251C109.618 150.091 118.459 148.379 124.448 144.957C130.438 141.249 134.43 135.973 136.427 129.128C138.708 122.284 139.849 114.013 139.849 104.316C139.849 95.1899 138.138 87.6322 134.716 81.643C131.578 75.3686 126.73 70.6629 120.171 67.5257C113.896 64.3885 105.911 62.8199 96.2139 62.8199H82.9521V150.091ZM227.521 358L292.974 11.4843H380.244L444.842 358H374.255L362.705 284.847H311.797L299.819 358H227.521ZM318.642 239.072H355.432L337.037 103.888L318.642 239.072ZM465.71 358L471.699 11.4843H553.837L591.91 212.977L632.979 11.4843H712.121L718.111 358H663.78L657.363 127.417L617.151 358H568.809L526.03 125.706L520.896 358H465.71ZM755.372 358V11.4843H845.638C860.468 11.4843 874.443 12.6251 887.562 14.9066C900.966 17.1882 912.802 21.6088 923.069 28.1684C933.336 34.4427 941.322 43.5691 947.026 55.5474C953.015 67.2405 956.009 82.7838 956.009 102.177C956.009 116.152 953.87 127.988 949.592 137.684C945.6 147.096 939.753 154.654 932.053 160.358C924.638 166.062 915.654 169.912 905.102 171.908C918.506 173.619 929.771 178.04 938.897 185.17C948.024 192.015 954.869 201.284 959.432 212.977C964.28 224.67 966.704 238.787 966.704 255.329C966.704 273.296 964.28 288.839 959.432 301.959C954.869 314.792 948.166 325.345 939.325 333.616C930.484 341.886 919.504 348.018 906.385 352.011C893.551 356.004 878.721 358 861.894 358H755.372ZM831.948 304.525H848.204C865.031 304.525 876.582 300.247 882.856 291.691C889.416 283.135 892.695 270.587 892.695 254.045C892.695 240.926 891.269 230.516 888.417 222.816C885.565 215.116 880.86 209.554 874.3 206.132C867.741 202.424 858.899 200.571 847.777 200.571H831.948V304.525ZM831.948 150.091H846.921C858.614 150.091 867.455 148.379 873.445 144.957C879.434 141.249 883.426 135.973 885.423 129.128C887.704 122.284 888.845 114.013 888.845 104.316C888.845 95.1899 887.134 87.6322 883.712 81.643C880.574 75.3686 875.726 70.6629 869.167 67.5257C862.892 64.3885 854.907 62.8199 845.21 62.8199H831.948V150.091ZM1093.29 363.134C1067.33 363.134 1046.8 358.57 1031.68 349.444C1016.57 340.318 1005.73 327.199 999.17 310.087C992.61 292.975 989.331 272.583 989.331 248.912V120.145C989.331 96.1881 992.61 75.7964 999.17 58.9697C1005.73 42.1431 1016.57 29.3092 1031.68 20.468C1046.8 11.3417 1067.33 6.7785 1093.29 6.7785C1119.52 6.7785 1140.2 11.3417 1155.32 20.468C1170.72 29.3092 1181.7 42.1431 1188.26 58.9697C1194.82 75.7964 1198.1 96.1881 1198.1 120.145V248.912C1198.1 272.583 1194.82 292.975 1188.26 310.087C1181.7 327.199 1170.72 340.318 1155.32 349.444C1140.2 358.57 1119.52 363.134 1093.29 363.134ZM1093.29 308.803C1101.27 308.803 1107.12 306.807 1110.83 302.814C1114.53 298.821 1116.96 293.688 1118.1 287.413C1119.24 281.139 1119.81 274.722 1119.81 268.163V101.322C1119.81 94.4769 1119.24 88.06 1118.1 82.0708C1116.96 75.7964 1114.53 70.6629 1110.83 66.6701C1107.12 62.6773 1101.27 60.6809 1093.29 60.6809C1085.87 60.6809 1080.31 62.6773 1076.6 66.6701C1072.89 70.6629 1070.47 75.7964 1069.33 82.0708C1068.19 88.06 1067.62 94.4769 1067.62 101.322V268.163C1067.62 274.722 1068.05 281.139 1068.9 287.413C1070.04 293.688 1072.32 298.821 1075.75 302.814C1079.45 306.807 1085.3 308.803 1093.29 308.803ZM1323.84 363.134C1302.17 363.134 1284.06 359.283 1269.51 351.583C1254.97 343.883 1243.99 332.047 1236.57 316.076C1229.16 299.82 1225.02 278.858 1224.16 253.19L1289.62 243.35C1289.9 258.181 1291.19 270.159 1293.47 279.285C1296.03 288.412 1299.46 294.971 1303.73 298.964C1308.3 302.957 1313.72 304.953 1319.99 304.953C1327.98 304.953 1333.11 302.244 1335.39 296.825C1337.96 291.406 1339.24 285.702 1339.24 279.713C1339.24 265.453 1335.82 253.475 1328.97 243.778C1322.13 233.796 1312.86 223.814 1301.17 213.832L1271.22 187.737C1258.1 176.614 1246.98 164.065 1237.85 150.091C1229.01 135.831 1224.59 118.291 1224.59 97.4715C1224.59 68.0961 1233.29 45.7081 1250.69 30.3073C1268.09 14.6214 1291.76 6.7785 1321.7 6.7785C1340.24 6.7785 1355.07 9.91568 1366.19 16.19C1377.6 22.4644 1386.16 30.7351 1391.86 41.0023C1397.85 50.9842 1401.84 61.6791 1403.84 73.0871C1406.12 84.2098 1407.4 94.9047 1407.69 105.172L1341.81 113.3C1341.52 103.033 1340.81 94.1917 1339.67 86.7766C1338.81 79.0762 1336.82 73.2297 1333.68 69.2369C1330.54 64.9589 1325.7 62.8199 1319.14 62.8199C1312.01 62.8199 1306.73 65.8145 1303.31 71.8037C1300.17 77.7928 1298.6 83.782 1298.6 89.7712C1298.6 102.605 1301.6 113.157 1307.59 121.428C1313.86 129.414 1321.99 137.827 1331.97 146.668L1360.63 171.908C1375.75 184.742 1388.44 199.287 1398.71 215.544C1409.26 231.8 1414.53 251.906 1414.53 275.863C1414.53 292.119 1410.83 306.95 1403.41 320.354C1396 333.473 1385.44 343.883 1371.75 351.583C1358.35 359.283 1342.38 363.134 1323.84 363.134ZM1523.65 363.134C1501.98 363.134 1483.87 359.283 1469.32 351.583C1454.78 343.883 1443.8 332.047 1436.38 316.076C1428.97 299.82 1424.83 278.858 1423.98 253.19L1489.43 243.35C1489.71 258.181 1491 270.159 1493.28 279.285C1495.85 288.412 1499.27 294.971 1503.55 298.964C1508.11 302.957 1513.53 304.953 1519.8 304.953C1527.79 304.953 1532.92 302.244 1535.2 296.825C1537.77 291.406 1539.05 285.702 1539.05 279.713C1539.05 265.453 1535.63 253.475 1528.79 243.778C1521.94 233.796 1512.67 223.814 1500.98 213.832L1471.03 187.737C1457.91 176.614 1446.79 164.065 1437.67 150.091C1428.82 135.831 1424.4 118.291 1424.4 97.4715C1424.4 68.0961 1433.1 45.7081 1450.5 30.3073C1467.9 14.6214 1491.57 6.7785 1521.51 6.7785C1540.05 6.7785 1554.88 9.91568 1566 16.19C1577.41 22.4644 1585.97 30.7351 1591.67 41.0023C1597.66 50.9842 1601.65 61.6791 1603.65 73.0871C1605.93 84.2098 1607.22 94.9047 1607.5 105.172L1541.62 113.3C1541.34 103.033 1540.62 94.1917 1539.48 86.7766C1538.63 79.0762 1536.63 73.2297 1533.49 69.2369C1530.35 64.9589 1525.51 62.8199 1518.95 62.8199C1511.82 62.8199 1506.54 65.8145 1503.12 71.8037C1499.98 77.7928 1498.41 83.782 1498.41 89.7712C1498.41 102.605 1501.41 113.157 1507.4 121.428C1513.67 129.414 1521.8 137.827 1531.78 146.668L1560.44 171.908C1575.56 184.742 1588.25 199.287 1598.52 215.544C1609.07 231.8 1614.35 251.906 1614.35 275.863C1614.35 292.119 1610.64 306.95 1603.22 320.354C1595.81 333.473 1585.26 343.883 1571.57 351.583C1558.16 359.283 1542.19 363.134 1523.65 363.134ZM1737.84 363.134C1711.89 363.134 1691.35 358.57 1676.24 349.444C1661.12 340.318 1650.28 327.199 1643.72 310.087C1637.16 292.975 1633.88 272.583 1633.88 248.912V120.145C1633.88 96.1881 1637.16 75.7964 1643.72 58.9697C1650.28 42.1431 1661.12 29.3092 1676.24 20.468C1691.35 11.3417 1711.89 6.7785 1737.84 6.7785C1764.08 6.7785 1784.75 11.3417 1799.87 20.468C1815.27 29.3092 1826.25 42.1431 1832.81 58.9697C1839.37 75.7964 1842.65 96.1881 1842.65 120.145V248.912C1842.65 272.583 1839.37 292.975 1832.81 310.087C1826.25 327.199 1815.27 340.318 1799.87 349.444C1784.75 358.57 1764.08 363.134 1737.84 363.134ZM1737.84 308.803C1745.82 308.803 1751.67 306.807 1755.38 302.814C1759.09 298.821 1761.51 293.688 1762.65 287.413C1763.79 281.139 1764.36 274.722 1764.36 268.163V101.322C1764.36 94.4769 1763.79 88.06 1762.65 82.0708C1761.51 75.7964 1759.09 70.6629 1755.38 66.6701C1751.67 62.6773 1745.82 60.6809 1737.84 60.6809C1730.42 60.6809 1724.86 62.6773 1721.15 66.6701C1717.45 70.6629 1715.02 75.7964 1713.88 82.0708C1712.74 88.06 1712.17 94.4769 1712.17 101.322V268.163C1712.17 274.722 1712.6 281.139 1713.45 287.413C1714.6 293.688 1716.88 298.821 1720.3 302.814C1724.01 306.807 1729.85 308.803 1737.84 308.803Z"/>
</mask>
<path d="M6.37645 358V11.4843H96.6417C111.472 11.4843 125.447 12.6251 138.566 14.9066C151.97 17.1882 163.806 21.6088 174.073 28.1684C184.34 34.4427 192.326 43.5691 198.03 55.5474C204.019 67.2405 207.013 82.7838 207.013 102.177C207.013 116.152 204.874 127.988 200.596 137.684C196.604 147.096 190.757 154.654 183.057 160.358C175.642 166.062 166.658 169.912 156.105 171.908C169.51 173.619 180.775 178.04 189.901 185.17C199.028 192.015 205.873 201.284 210.436 212.977C215.284 224.67 217.708 238.787 217.708 255.329C217.708 273.296 215.284 288.839 210.436 301.959C205.873 314.792 199.17 325.345 190.329 333.616C181.488 341.886 170.508 348.018 157.389 352.011C144.555 356.004 129.725 358 112.898 358H6.37645ZM82.9521 304.525H99.2084C116.035 304.525 127.586 300.247 133.86 291.691C140.42 283.135 143.699 270.587 143.699 254.045C143.699 240.926 142.273 230.516 139.421 222.816C136.569 215.116 131.864 209.554 125.304 206.132C118.745 202.424 109.903 200.571 98.7806 200.571H82.9521V304.525ZM82.9521 150.091H97.9251C109.618 150.091 118.459 148.379 124.448 144.957C130.438 141.249 134.43 135.973 136.427 129.128C138.708 122.284 139.849 114.013 139.849 104.316C139.849 95.1899 138.138 87.6322 134.716 81.643C131.578 75.3686 126.73 70.6629 120.171 67.5257C113.896 64.3885 105.911 62.8199 96.2139 62.8199H82.9521V150.091ZM227.521 358L292.974 11.4843H380.244L444.842 358H374.255L362.705 284.847H311.797L299.819 358H227.521ZM318.642 239.072H355.432L337.037 103.888L318.642 239.072ZM465.71 358L471.699 11.4843H553.837L591.91 212.977L632.979 11.4843H712.121L718.111 358H663.78L657.363 127.417L617.151 358H568.809L526.03 125.706L520.896 358H465.71ZM755.372 358V11.4843H845.638C860.468 11.4843 874.443 12.6251 887.562 14.9066C900.966 17.1882 912.802 21.6088 923.069 28.1684C933.336 34.4427 941.322 43.5691 947.026 55.5474C953.015 67.2405 956.009 82.7838 956.009 102.177C956.009 116.152 953.87 127.988 949.592 137.684C945.6 147.096 939.753 154.654 932.053 160.358C924.638 166.062 915.654 169.912 905.102 171.908C918.506 173.619 929.771 178.04 938.897 185.17C948.024 192.015 954.869 201.284 959.432 212.977C964.28 224.67 966.704 238.787 966.704 255.329C966.704 273.296 964.28 288.839 959.432 301.959C954.869 314.792 948.166 325.345 939.325 333.616C930.484 341.886 919.504 348.018 906.385 352.011C893.551 356.004 878.721 358 861.894 358H755.372ZM831.948 304.525H848.204C865.031 304.525 876.582 300.247 882.856 291.691C889.416 283.135 892.695 270.587 892.695 254.045C892.695 240.926 891.269 230.516 888.417 222.816C885.565 215.116 880.86 209.554 874.3 206.132C867.741 202.424 858.899 200.571 847.777 200.571H831.948V304.525ZM831.948 150.091H846.921C858.614 150.091 867.455 148.379 873.445 144.957C879.434 141.249 883.426 135.973 885.423 129.128C887.704 122.284 888.845 114.013 888.845 104.316C888.845 95.1899 887.134 87.6322 883.712 81.643C880.574 75.3686 875.726 70.6629 869.167 67.5257C862.892 64.3885 854.907 62.8199 845.21 62.8199H831.948V150.091ZM1093.29 363.134C1067.33 363.134 1046.8 358.57 1031.68 349.444C1016.57 340.318 1005.73 327.199 999.17 310.087C992.61 292.975 989.331 272.583 989.331 248.912V120.145C989.331 96.1881 992.61 75.7964 999.17 58.9697C1005.73 42.1431 1016.57 29.3092 1031.68 20.468C1046.8 11.3417 1067.33 6.7785 1093.29 6.7785C1119.52 6.7785 1140.2 11.3417 1155.32 20.468C1170.72 29.3092 1181.7 42.1431 1188.26 58.9697C1194.82 75.7964 1198.1 96.1881 1198.1 120.145V248.912C1198.1 272.583 1194.82 292.975 1188.26 310.087C1181.7 327.199 1170.72 340.318 1155.32 349.444C1140.2 358.57 1119.52 363.134 1093.29 363.134ZM1093.29 308.803C1101.27 308.803 1107.12 306.807 1110.83 302.814C1114.53 298.821 1116.96 293.688 1118.1 287.413C1119.24 281.139 1119.81 274.722 1119.81 268.163V101.322C1119.81 94.4769 1119.24 88.06 1118.1 82.0708C1116.96 75.7964 1114.53 70.6629 1110.83 66.6701C1107.12 62.6773 1101.27 60.6809 1093.29 60.6809C1085.87 60.6809 1080.31 62.6773 1076.6 66.6701C1072.89 70.6629 1070.47 75.7964 1069.33 82.0708C1068.19 88.06 1067.62 94.4769 1067.62 101.322V268.163C1067.62 274.722 1068.05 281.139 1068.9 287.413C1070.04 293.688 1072.32 298.821 1075.75 302.814C1079.45 306.807 1085.3 308.803 1093.29 308.803ZM1323.84 363.134C1302.17 363.134 1284.06 359.283 1269.51 351.583C1254.97 343.883 1243.99 332.047 1236.57 316.076C1229.16 299.82 1225.02 278.858 1224.16 253.19L1289.62 243.35C1289.9 258.181 1291.19 270.159 1293.47 279.285C1296.03 288.412 1299.46 294.971 1303.73 298.964C1308.3 302.957 1313.72 304.953 1319.99 304.953C1327.98 304.953 1333.11 302.244 1335.39 296.825C1337.96 291.406 1339.24 285.702 1339.24 279.713C1339.24 265.453 1335.82 253.475 1328.97 243.778C1322.13 233.796 1312.86 223.814 1301.17 213.832L1271.22 187.737C1258.1 176.614 1246.98 164.065 1237.85 150.091C1229.01 135.831 1224.59 118.291 1224.59 97.4715C1224.59 68.0961 1233.29 45.7081 1250.69 30.3073C1268.09 14.6214 1291.76 6.7785 1321.7 6.7785C1340.24 6.7785 1355.07 9.91568 1366.19 16.19C1377.6 22.4644 1386.16 30.7351 1391.86 41.0023C1397.85 50.9842 1401.84 61.6791 1403.84 73.0871C1406.12 84.2098 1407.4 94.9047 1407.69 105.172L1341.81 113.3C1341.52 103.033 1340.81 94.1917 1339.67 86.7766C1338.81 79.0762 1336.82 73.2297 1333.68 69.2369C1330.54 64.9589 1325.7 62.8199 1319.14 62.8199C1312.01 62.8199 1306.73 65.8145 1303.31 71.8037C1300.17 77.7928 1298.6 83.782 1298.6 89.7712C1298.6 102.605 1301.6 113.157 1307.59 121.428C1313.86 129.414 1321.99 137.827 1331.97 146.668L1360.63 171.908C1375.75 184.742 1388.44 199.287 1398.71 215.544C1409.26 231.8 1414.53 251.906 1414.53 275.863C1414.53 292.119 1410.83 306.95 1403.41 320.354C1396 333.473 1385.44 343.883 1371.75 351.583C1358.35 359.283 1342.38 363.134 1323.84 363.134ZM1523.65 363.134C1501.98 363.134 1483.87 359.283 1469.32 351.583C1454.78 343.883 1443.8 332.047 1436.38 316.076C1428.97 299.82 1424.83 278.858 1423.98 253.19L1489.43 243.35C1489.71 258.181 1491 270.159 1493.28 279.285C1495.85 288.412 1499.27 294.971 1503.55 298.964C1508.11 302.957 1513.53 304.953 1519.8 304.953C1527.79 304.953 1532.92 302.244 1535.2 296.825C1537.77 291.406 1539.05 285.702 1539.05 279.713C1539.05 265.453 1535.63 253.475 1528.79 243.778C1521.94 233.796 1512.67 223.814 1500.98 213.832L1471.03 187.737C1457.91 176.614 1446.79 164.065 1437.67 150.091C1428.82 135.831 1424.4 118.291 1424.4 97.4715C1424.4 68.0961 1433.1 45.7081 1450.5 30.3073C1467.9 14.6214 1491.57 6.7785 1521.51 6.7785C1540.05 6.7785 1554.88 9.91568 1566 16.19C1577.41 22.4644 1585.97 30.7351 1591.67 41.0023C1597.66 50.9842 1601.65 61.6791 1603.65 73.0871C1605.93 84.2098 1607.22 94.9047 1607.5 105.172L1541.62 113.3C1541.34 103.033 1540.62 94.1917 1539.48 86.7766C1538.63 79.0762 1536.63 73.2297 1533.49 69.2369C1530.35 64.9589 1525.51 62.8199 1518.95 62.8199C1511.82 62.8199 1506.54 65.8145 1503.12 71.8037C1499.98 77.7928 1498.41 83.782 1498.41 89.7712C1498.41 102.605 1501.41 113.157 1507.4 121.428C1513.67 129.414 1521.8 137.827 1531.78 146.668L1560.44 171.908C1575.56 184.742 1588.25 199.287 1598.52 215.544C1609.07 231.8 1614.35 251.906 1614.35 275.863C1614.35 292.119 1610.64 306.95 1603.22 320.354C1595.81 333.473 1585.26 343.883 1571.57 351.583C1558.16 359.283 1542.19 363.134 1523.65 363.134ZM1737.84 363.134C1711.89 363.134 1691.35 358.57 1676.24 349.444C1661.12 340.318 1650.28 327.199 1643.72 310.087C1637.16 292.975 1633.88 272.583 1633.88 248.912V120.145C1633.88 96.1881 1637.16 75.7964 1643.72 58.9697C1650.28 42.1431 1661.12 29.3092 1676.24 20.468C1691.35 11.3417 1711.89 6.7785 1737.84 6.7785C1764.08 6.7785 1784.75 11.3417 1799.87 20.468C1815.27 29.3092 1826.25 42.1431 1832.81 58.9697C1839.37 75.7964 1842.65 96.1881 1842.65 120.145V248.912C1842.65 272.583 1839.37 292.975 1832.81 310.087C1826.25 327.199 1815.27 340.318 1799.87 349.444C1784.75 358.57 1764.08 363.134 1737.84 363.134ZM1737.84 308.803C1745.82 308.803 1751.67 306.807 1755.38 302.814C1759.09 298.821 1761.51 293.688 1762.65 287.413C1763.79 281.139 1764.36 274.722 1764.36 268.163V101.322C1764.36 94.4769 1763.79 88.06 1762.65 82.0708C1761.51 75.7964 1759.09 70.6629 1755.38 66.6701C1751.67 62.6773 1745.82 60.6809 1737.84 60.6809C1730.42 60.6809 1724.86 62.6773 1721.15 66.6701C1717.45 70.6629 1715.02 75.7964 1713.88 82.0708C1712.74 88.06 1712.17 94.4769 1712.17 101.322V268.163C1712.17 274.722 1712.6 281.139 1713.45 287.413C1714.6 293.688 1716.88 298.821 1720.3 302.814C1724.01 306.807 1729.85 308.803 1737.84 308.803Z" fill="url(#paint0_radial_106_199)"/>
<path d="M6.37645 358H0.37645V364H6.37645V358ZM6.37645 11.4843V5.48426H0.37645V11.4843H6.37645ZM138.566 14.9066L137.538 20.8179L137.548 20.8198L137.559 20.8216L138.566 14.9066ZM174.073 28.1684L170.843 33.2245L170.893 33.2568L170.944 33.2881L174.073 28.1684ZM198.03 55.5474L192.612 58.127L192.65 58.2054L192.689 58.2826L198.03 55.5474ZM200.596 137.684L195.107 135.263L195.09 135.302L195.073 135.341L200.596 137.684ZM183.057 160.358L179.485 155.536L179.442 155.569L179.398 155.602L183.057 160.358ZM156.105 171.908L154.99 166.013L155.346 177.86L156.105 171.908ZM189.901 185.17L186.208 189.898L186.254 189.934L186.301 189.97L189.901 185.17ZM210.436 212.977L204.846 215.158L204.869 215.217L204.893 215.275L210.436 212.977ZM210.436 301.959L204.808 299.879L204.795 299.914L204.782 299.949L210.436 301.959ZM190.329 333.616L186.23 329.234L190.329 333.616ZM157.389 352.011L155.642 346.271L155.624 346.276L155.606 346.282L157.389 352.011ZM82.9521 304.525H76.9521V310.525H82.9521V304.525ZM133.86 291.691L129.098 288.041L129.059 288.092L129.022 288.143L133.86 291.691ZM125.304 206.132L122.352 211.355L122.439 211.405L122.529 211.452L125.304 206.132ZM82.9521 200.571V194.571H76.9521V200.571H82.9521ZM82.9521 150.091H76.9521V156.091H82.9521V150.091ZM124.448 144.957L127.425 150.166L127.517 150.114L127.607 150.059L124.448 144.957ZM136.427 129.128L130.735 127.231L130.699 127.339L130.667 127.449L136.427 129.128ZM134.716 81.643L129.349 84.3263L129.424 84.4753L129.506 84.6198L134.716 81.643ZM120.171 67.5257L117.487 72.8923L117.534 72.9158L117.582 72.9385L120.171 67.5257ZM82.9521 62.8199V56.8199H76.9521V62.8199H82.9521ZM6.37645 358H12.3764V11.4843H6.37645H0.37645V358H6.37645ZM6.37645 11.4843V17.4843H96.6417V11.4843V5.48426H6.37645V11.4843ZM96.6417 11.4843V17.4843C111.166 17.4843 124.794 18.6016 137.538 20.8179L138.566 14.9066L139.594 8.99537C126.099 6.64852 111.778 5.48426 96.6417 5.48426V11.4843ZM138.566 14.9066L137.559 20.8216C150.264 22.9841 161.326 27.1445 170.843 33.2245L174.073 28.1684L177.303 23.1122C166.286 16.0731 153.676 11.3923 139.573 8.99171L138.566 14.9066ZM174.073 28.1684L170.944 33.2881C180.118 38.894 187.355 47.0874 192.612 58.127L198.03 55.5474L203.447 52.9678C197.296 40.0507 188.563 29.9915 177.202 23.0487L174.073 28.1684ZM198.03 55.5474L192.689 58.2826C198.088 68.8224 201.013 83.317 201.013 102.177H207.013H213.013C213.013 82.2506 209.95 65.6586 203.37 52.8121L198.03 55.5474ZM207.013 102.177H201.013C201.013 115.571 198.959 126.531 195.107 135.263L200.596 137.684L206.086 140.106C210.789 129.445 213.013 116.733 213.013 102.177H207.013ZM200.596 137.684L195.073 135.341C191.469 143.836 186.268 150.512 179.485 155.536L183.057 160.358L186.628 165.179C195.246 158.795 201.738 150.356 206.12 140.028L200.596 137.684ZM183.057 160.358L179.398 155.602C172.833 160.652 164.755 164.165 154.99 166.013L156.105 171.908L157.221 177.804C168.561 175.658 178.45 171.471 186.715 165.113L183.057 160.358ZM156.105 171.908L155.346 177.86C167.86 179.458 178.064 183.536 186.208 189.898L189.901 185.17L193.595 180.442C183.486 172.544 171.159 167.781 156.865 165.957L156.105 171.908ZM189.901 185.17L186.301 189.97C194.445 196.078 200.647 204.398 204.846 215.158L210.436 212.977L216.025 210.796C211.098 198.169 203.61 187.952 193.501 180.37L189.901 185.17ZM210.436 212.977L204.893 215.275C209.362 226.053 211.708 239.346 211.708 255.329H217.708H223.708C223.708 238.229 221.206 223.286 215.978 210.679L210.436 212.977ZM217.708 255.329H211.708C211.708 272.779 209.351 287.585 204.808 299.879L210.436 301.959L216.064 304.038C221.217 290.094 223.708 273.814 223.708 255.329H217.708ZM210.436 301.959L204.782 299.949C200.5 311.993 194.288 321.696 186.23 329.234L190.329 333.616L194.428 337.997C204.053 328.993 211.245 317.592 216.089 303.969L210.436 301.959ZM190.329 333.616L186.23 329.234C178.143 336.799 168.001 342.509 155.642 346.271L157.389 352.011L159.136 357.751C173.015 353.527 184.833 346.973 194.428 337.997L190.329 333.616ZM157.389 352.011L155.606 346.282C143.474 350.056 129.266 352 112.898 352V358V364C130.184 364 145.636 361.951 159.171 357.74L157.389 352.011ZM112.898 358V352H6.37645V358V364H112.898V358ZM82.9521 304.525V310.525H99.2084V304.525V298.525H82.9521V304.525ZM99.2084 304.525V310.525C116.808 310.525 130.757 306.069 138.698 295.24L133.86 291.691L129.022 288.143C124.414 294.426 115.262 298.525 99.2084 298.525V304.525ZM133.86 291.691L138.622 295.342C146.312 285.311 149.699 271.241 149.699 254.045H143.699H137.699C137.699 269.933 134.527 280.96 129.098 288.041L133.86 291.691ZM143.699 254.045H149.699C149.699 240.588 148.25 229.377 145.048 220.732L139.421 222.816L133.795 224.9C136.297 231.655 137.699 241.264 137.699 254.045H143.699ZM139.421 222.816L145.048 220.732C141.741 211.803 136.106 205 128.079 200.812L125.304 206.132L122.529 211.452C127.621 214.109 131.398 218.429 133.795 224.9L139.421 222.816ZM125.304 206.132L128.256 200.909C120.467 196.506 110.48 194.571 98.7806 194.571V200.571V206.571C109.327 206.571 117.022 208.343 122.352 211.355L125.304 206.132ZM98.7806 200.571V194.571H82.9521V200.571V206.571H98.7806V200.571ZM82.9521 200.571H76.9521V304.525H82.9521H88.9521V200.571H82.9521ZM82.9521 150.091V156.091H97.9251V150.091V144.091H82.9521V150.091ZM97.9251 150.091V156.091C110.024 156.091 120.102 154.351 127.425 150.166L124.448 144.957L121.472 139.748C116.817 142.407 109.213 144.091 97.9251 144.091V150.091ZM124.448 144.957L127.607 150.059C134.873 145.56 139.781 139.057 142.187 130.809L136.427 129.128L130.667 127.449C129.08 132.89 126.003 136.938 121.29 139.855L124.448 144.957ZM136.427 129.128L142.119 131.026C144.661 123.4 145.849 114.451 145.849 104.316H139.849H133.849C133.849 113.575 132.756 121.168 130.735 127.231L136.427 129.128ZM139.849 104.316H145.849C145.849 94.4725 144.007 85.8087 139.925 78.6662L134.716 81.643L129.506 84.6198C132.269 89.4556 133.849 95.9074 133.849 104.316H139.849ZM134.716 81.643L140.082 78.9597C136.325 71.4458 130.475 65.8031 122.759 62.1129L120.171 67.5257L117.582 72.9385C122.985 75.5227 126.832 79.2915 129.349 84.3263L134.716 81.643ZM120.171 67.5257L122.854 62.1591C115.49 58.4774 106.506 56.8199 96.2139 56.8199V62.8199V68.8199C105.315 68.8199 112.302 70.2996 117.487 72.8923L120.171 67.5257ZM96.2139 62.8199V56.8199H82.9521V62.8199V68.8199H96.2139V62.8199ZM82.9521 62.8199H76.9521V150.091H82.9521H88.9521V62.8199H82.9521ZM227.521 358L221.625 356.886L220.281 364H227.521V358ZM292.974 11.4843V5.48426H288.001L287.078 10.3706L292.974 11.4843ZM380.244 11.4843L386.143 10.3847L385.229 5.48426H380.244V11.4843ZM444.842 358V364H452.064L450.74 356.9L444.842 358ZM374.255 358L368.329 358.936L369.128 364H374.255V358ZM362.705 284.847L368.631 283.911L367.832 278.847H362.705V284.847ZM311.797 284.847V278.847H306.699L305.876 283.877L311.797 284.847ZM299.819 358V364H304.916L305.74 358.97L299.819 358ZM318.642 239.072L312.696 238.263L311.77 245.072H318.642V239.072ZM355.432 239.072V245.072H362.304L361.377 238.263L355.432 239.072ZM337.037 103.888L342.982 103.079H331.092L337.037 103.888ZM227.521 358L233.417 359.114L298.87 12.5979L292.974 11.4843L287.078 10.3706L221.625 356.886L227.521 358ZM292.974 11.4843V17.4843H380.244V11.4843V5.48426H292.974V11.4843ZM380.244 11.4843L374.346 12.5838L438.943 359.1L444.842 358L450.74 356.9L386.143 10.3847L380.244 11.4843ZM444.842 358V352H374.255V358V364H444.842V358ZM374.255 358L380.182 357.064L368.631 283.911L362.705 284.847L356.778 285.782L368.329 358.936L374.255 358ZM362.705 284.847V278.847H311.797V284.847V290.847H362.705V284.847ZM311.797 284.847L305.876 283.877L293.897 357.03L299.819 358L305.74 358.97L317.718 285.816L311.797 284.847ZM299.819 358V352H227.521V358V364H299.819V358ZM318.642 239.072V245.072H355.432V239.072V233.072H318.642V239.072ZM355.432 239.072L361.377 238.263L342.982 103.079L337.037 103.888L331.092 104.697L349.487 239.881L355.432 239.072ZM337.037 103.888L331.092 103.079L312.696 238.263L318.642 239.072L324.587 239.881L342.982 104.697L337.037 103.888ZM465.71 358L459.711 357.896L459.606 364H465.71V358ZM471.699 11.4843V5.48426H465.802L465.7 11.3806L471.699 11.4843ZM553.837 11.4843L559.732 10.3702L558.809 5.48426H553.837V11.4843ZM591.91 212.977L586.015 214.091L597.79 214.175L591.91 212.977ZM632.979 11.4843V5.48426H628.079L627.1 10.286L632.979 11.4843ZM712.121 11.4843L718.121 11.3806L718.019 5.48426H712.121V11.4843ZM718.111 358V364H724.215L724.11 357.896L718.111 358ZM663.78 358L657.783 358.167L657.945 364H663.78V358ZM657.363 127.417L663.361 127.25L651.453 126.386L657.363 127.417ZM617.151 358V364H622.195L623.061 359.031L617.151 358ZM568.809 358L562.909 359.087L563.813 364H568.809V358ZM526.03 125.706L531.93 124.619L520.031 125.574L526.03 125.706ZM520.896 358V364H526.765L526.895 358.133L520.896 358ZM465.71 358L471.709 358.104L477.699 11.5879L471.699 11.4843L465.7 11.3806L459.711 357.896L465.71 358ZM471.699 11.4843V17.4843H553.837V11.4843V5.48426H471.699V11.4843ZM553.837 11.4843L547.941 12.5983L586.015 214.091L591.91 212.977L597.806 211.863L559.732 10.3702L553.837 11.4843ZM591.91 212.977L597.79 214.175L638.858 12.6825L632.979 11.4843L627.1 10.286L586.031 211.778L591.91 212.977ZM632.979 11.4843V17.4843H712.121V11.4843V5.48426H632.979V11.4843ZM712.121 11.4843L706.122 11.5879L712.112 358.104L718.111 358L724.11 357.896L718.121 11.3806L712.121 11.4843ZM718.111 358V352H663.78V358V364H718.111V358ZM663.78 358L669.778 357.833L663.361 127.25L657.363 127.417L651.366 127.584L657.783 358.167L663.78 358ZM657.363 127.417L651.453 126.386L611.24 356.969L617.151 358L623.061 359.031L663.274 128.448L657.363 127.417ZM617.151 358V352H568.809V358V364H617.151V358ZM568.809 358L574.71 356.913L531.93 124.619L526.03 125.706L520.129 126.793L562.909 359.087L568.809 358ZM526.03 125.706L520.031 125.574L514.898 357.867L520.896 358L526.895 358.133L532.028 125.839L526.03 125.706ZM520.896 358V352H465.71V358V364H520.896V358ZM755.372 358H749.372V364H755.372V358ZM755.372 11.4843V5.48426H749.372V11.4843H755.372ZM887.562 14.9066L886.534 20.8179L886.544 20.8198L886.555 20.8216L887.562 14.9066ZM923.069 28.1684L919.839 33.2245L919.889 33.2568L919.94 33.2881L923.069 28.1684ZM947.026 55.5474L941.608 58.127L941.646 58.2054L941.685 58.2826L947.026 55.5474ZM949.592 137.684L944.103 135.263L944.086 135.302L944.069 135.341L949.592 137.684ZM932.053 160.358L928.481 155.536L928.438 155.569L928.394 155.602L932.053 160.358ZM905.102 171.908L903.986 166.013L904.342 177.86L905.102 171.908ZM938.897 185.17L935.204 189.898L935.25 189.934L935.297 189.97L938.897 185.17ZM959.432 212.977L953.842 215.158L953.865 215.217L953.889 215.275L959.432 212.977ZM959.432 301.959L953.804 299.879L953.791 299.914L953.778 299.949L959.432 301.959ZM939.325 333.616L935.226 329.234L939.325 333.616ZM906.385 352.011L904.638 346.271L904.62 346.276L904.602 346.282L906.385 352.011ZM831.948 304.525H825.948V310.525H831.948V304.525ZM882.856 291.691L878.094 288.041L878.055 288.092L878.018 288.143L882.856 291.691ZM874.3 206.132L871.348 211.355L871.435 211.405L871.525 211.452L874.3 206.132ZM831.948 200.571V194.571H825.948V200.571H831.948ZM831.948 150.091H825.948V156.091H831.948V150.091ZM873.445 144.957L876.421 150.166L876.513 150.114L876.603 150.059L873.445 144.957ZM885.423 129.128L879.731 127.231L879.695 127.339L879.663 127.449L885.423 129.128ZM883.712 81.643L878.345 84.3263L878.42 84.4753L878.502 84.6198L883.712 81.643ZM869.167 67.5257L866.483 72.8923L866.53 72.9158L866.578 72.9385L869.167 67.5257ZM831.948 62.8199V56.8199H825.948V62.8199H831.948ZM755.372 358H761.372V11.4843H755.372H749.372V358H755.372ZM755.372 11.4843V17.4843H845.638V11.4843V5.48426H755.372V11.4843ZM845.638 11.4843V17.4843C860.162 17.4843 873.79 18.6016 886.534 20.8179L887.562 14.9066L888.59 8.99537C875.096 6.64852 860.774 5.48426 845.638 5.48426V11.4843ZM887.562 14.9066L886.555 20.8216C899.26 22.9841 910.322 27.1445 919.839 33.2245L923.069 28.1684L926.299 23.1122C915.282 16.0731 902.672 11.3923 888.569 8.99171L887.562 14.9066ZM923.069 28.1684L919.94 33.2881C929.114 38.894 936.352 47.0874 941.608 58.127L947.026 55.5474L952.443 52.9678C946.292 40.0507 937.559 29.9915 926.198 23.0487L923.069 28.1684ZM947.026 55.5474L941.685 58.2826C947.084 68.8224 950.009 83.317 950.009 102.177H956.009H962.009C962.009 82.2506 958.946 65.6586 952.366 52.8121L947.026 55.5474ZM956.009 102.177H950.009C950.009 115.571 947.955 126.531 944.103 135.263L949.592 137.684L955.082 140.106C959.786 129.445 962.009 116.733 962.009 102.177H956.009ZM949.592 137.684L944.069 135.341C940.465 143.836 935.264 150.512 928.481 155.536L932.053 160.358L935.624 165.179C944.242 158.795 950.734 150.356 955.116 140.028L949.592 137.684ZM932.053 160.358L928.394 155.602C921.829 160.652 913.751 164.165 903.986 166.013L905.102 171.908L906.217 177.804C917.557 175.658 927.446 171.471 935.711 165.113L932.053 160.358ZM905.102 171.908L904.342 177.86C916.857 179.458 927.06 183.536 935.204 189.898L938.897 185.17L942.591 180.442C932.482 172.544 920.155 167.781 905.861 165.957L905.102 171.908ZM938.897 185.17L935.297 189.97C943.441 196.078 949.643 204.398 953.842 215.158L959.432 212.977L965.021 210.796C960.094 198.169 952.606 187.952 942.497 180.37L938.897 185.17ZM959.432 212.977L953.889 215.275C958.358 226.053 960.704 239.346 960.704 255.329H966.704H972.704C972.704 238.229 970.202 223.286 964.974 210.679L959.432 212.977ZM966.704 255.329H960.704C960.704 272.779 958.347 287.585 953.804 299.879L959.432 301.959L965.06 304.038C970.213 290.094 972.704 273.814 972.704 255.329H966.704ZM959.432 301.959L953.778 299.949C949.496 311.993 943.284 321.696 935.226 329.234L939.325 333.616L943.424 337.997C953.049 328.993 960.241 317.592 965.085 303.969L959.432 301.959ZM939.325 333.616L935.226 329.234C927.139 336.799 916.997 342.509 904.638 346.271L906.385 352.011L908.132 357.751C922.011 353.527 933.829 346.973 943.424 337.997L939.325 333.616ZM906.385 352.011L904.602 346.282C892.47 350.056 878.262 352 861.894 352V358V364C879.18 364 894.632 361.951 908.167 357.74L906.385 352.011ZM861.894 358V352H755.372V358V364H861.894V358ZM831.948 304.525V310.525H848.204V304.525V298.525H831.948V304.525ZM848.204 304.525V310.525C865.804 310.525 879.753 306.069 887.694 295.24L882.856 291.691L878.018 288.143C873.41 294.426 864.258 298.525 848.204 298.525V304.525ZM882.856 291.691L887.618 295.342C895.308 285.311 898.695 271.241 898.695 254.045H892.695H886.695C886.695 269.933 883.523 280.96 878.094 288.041L882.856 291.691ZM892.695 254.045H898.695C898.695 240.588 897.246 229.377 894.044 220.732L888.417 222.816L882.791 224.9C885.293 231.655 886.695 241.264 886.695 254.045H892.695ZM888.417 222.816L894.044 220.732C890.737 211.803 885.102 205 877.076 200.812L874.3 206.132L871.525 211.452C876.617 214.109 880.394 218.429 882.791 224.9L888.417 222.816ZM874.3 206.132L877.252 200.909C869.463 196.506 859.476 194.571 847.777 194.571V200.571V206.571C858.323 206.571 866.018 208.343 871.348 211.355L874.3 206.132ZM847.777 200.571V194.571H831.948V200.571V206.571H847.777V200.571ZM831.948 200.571H825.948V304.525H831.948H837.948V200.571H831.948ZM831.948 150.091V156.091H846.921V150.091V144.091H831.948V150.091ZM846.921 150.091V156.091C859.02 156.091 869.098 154.351 876.421 150.166L873.445 144.957L870.468 139.748C865.813 142.407 858.209 144.091 846.921 144.091V150.091ZM873.445 144.957L876.603 150.059C883.869 145.56 888.777 139.057 891.183 130.809L885.423 129.128L879.663 127.449C878.076 132.89 874.999 136.938 870.286 139.855L873.445 144.957ZM885.423 129.128L891.115 131.026C893.657 123.4 894.845 114.451 894.845 104.316H888.845H882.845C882.845 113.575 881.752 121.168 879.731 127.231L885.423 129.128ZM888.845 104.316H894.845C894.845 94.4725 893.003 85.8087 888.921 78.6662L883.712 81.643L878.502 84.6198C881.266 89.4556 882.845 95.9074 882.845 104.316H888.845ZM883.712 81.643L889.078 78.9597C885.321 71.4458 879.471 65.8031 871.755 62.1129L869.167 67.5257L866.578 72.9385C871.981 75.5227 875.828 79.2915 878.345 84.3263L883.712 81.643ZM869.167 67.5257L871.85 62.1591C864.486 58.4774 855.502 56.8199 845.21 56.8199V62.8199V68.8199C854.311 68.8199 861.298 70.2996 866.483 72.8923L869.167 67.5257ZM845.21 62.8199V56.8199H831.948V62.8199V68.8199H845.21V62.8199ZM831.948 62.8199H825.948V150.091H831.948H837.948V62.8199H831.948ZM1031.68 349.444L1028.58 354.58L1031.68 349.444ZM999.17 58.9697L993.58 56.7905H993.58L999.17 58.9697ZM1031.68 20.468L1034.71 25.6471L1034.75 25.626L1034.78 25.6044L1031.68 20.468ZM1155.32 20.468L1152.21 25.6044L1152.27 25.6386L1152.33 25.6715L1155.32 20.468ZM1188.26 58.9697L1182.67 61.149L1188.26 58.9697ZM1188.26 310.087L1182.65 307.939L1188.26 310.087ZM1155.32 349.444L1152.26 344.282L1152.24 344.295L1152.21 344.308L1155.32 349.444ZM1110.83 302.814L1106.43 298.731L1110.83 302.814ZM1118.1 287.413L1124 288.487V288.487L1118.1 287.413ZM1118.1 82.0708L1112.19 83.1441L1112.2 83.1688L1112.2 83.1935L1118.1 82.0708ZM1110.83 66.6701L1106.43 70.7528L1110.83 66.6701ZM1076.6 66.6701L1081 70.7528H1081L1076.6 66.6701ZM1069.33 82.0708L1075.22 83.1935L1075.23 83.1688L1075.23 83.1441L1069.33 82.0708ZM1068.9 287.413L1062.96 288.224L1062.97 288.356L1063 288.487L1068.9 287.413ZM1075.75 302.814L1071.19 306.719L1071.27 306.809L1071.35 306.897L1075.75 302.814ZM1093.29 363.134V357.134C1067.94 357.134 1048.62 352.664 1034.78 344.308L1031.68 349.444L1028.58 354.58C1044.97 364.477 1066.72 369.134 1093.29 369.134V363.134ZM1031.68 349.444L1034.78 344.308C1020.86 335.899 1010.87 323.855 1004.77 307.939L999.17 310.087L993.568 312.234C1000.59 330.542 1012.28 344.736 1028.58 354.58L1031.68 349.444ZM999.17 310.087L1004.77 307.939C998.54 291.68 995.331 272.053 995.331 248.912H989.331H983.331C983.331 273.113 986.681 294.269 993.568 312.234L999.17 310.087ZM989.331 248.912H995.331V120.145H989.331H983.331V248.912H989.331ZM989.331 120.145H995.331C995.331 96.7039 998.544 77.095 1004.76 61.149L999.17 58.9697L993.58 56.7905C986.677 74.4979 983.331 95.6723 983.331 120.145H989.331ZM999.17 58.9697L1004.76 61.149C1010.85 45.5396 1020.8 33.7827 1034.71 25.6471L1031.68 20.468L1028.65 15.2889C1012.33 24.8356 1000.61 38.7465 993.58 56.7905L999.17 58.9697ZM1031.68 20.468L1034.78 25.6044C1048.62 17.2485 1067.94 12.7785 1093.29 12.7785V6.7785V0.778496C1066.72 0.778496 1044.97 5.43481 1028.58 15.3316L1031.68 20.468ZM1093.29 6.7785V12.7785C1118.93 12.7785 1138.38 17.2536 1152.21 25.6044L1155.32 20.468L1158.42 15.3316C1142.02 5.42975 1120.12 0.778496 1093.29 0.778496V6.7785ZM1155.32 20.468L1152.33 25.6715C1166.52 33.8186 1176.59 45.5743 1182.67 61.149L1188.26 58.9697L1193.85 56.7905C1186.8 38.7119 1174.91 24.7997 1158.3 15.2645L1155.32 20.468ZM1188.26 58.9697L1182.67 61.149C1188.88 77.095 1192.1 96.7039 1192.1 120.145H1198.1H1204.1C1204.1 95.6723 1200.75 74.4979 1193.85 56.7905L1188.26 58.9697ZM1198.1 120.145H1192.1V248.912H1198.1H1204.1V120.145H1198.1ZM1198.1 248.912H1192.1C1192.1 272.053 1188.89 291.68 1182.65 307.939L1188.26 310.087L1193.86 312.234C1200.75 294.269 1204.1 273.113 1204.1 248.912H1198.1ZM1188.26 310.087L1182.65 307.939C1176.57 323.821 1166.47 335.863 1152.26 344.282L1155.32 349.444L1158.37 354.606C1174.97 344.773 1186.83 330.576 1193.86 312.234L1188.26 310.087ZM1155.32 349.444L1152.21 344.308C1138.38 352.658 1118.93 357.134 1093.29 357.134V363.134V369.134C1120.12 369.134 1142.02 364.482 1158.42 354.58L1155.32 349.444ZM1093.29 308.803V314.803C1102.16 314.803 1109.94 312.588 1115.22 306.897L1110.83 302.814L1106.43 298.731C1104.3 301.026 1100.39 302.803 1093.29 302.803V308.803ZM1110.83 302.814L1115.22 306.897C1119.83 301.931 1122.69 295.692 1124 288.487L1118.1 287.413L1112.19 286.34C1111.22 291.684 1109.23 295.712 1106.43 298.731L1110.83 302.814ZM1118.1 287.413L1124 288.487C1125.21 281.848 1125.81 275.072 1125.81 268.163H1119.81H1113.81C1113.81 274.372 1113.27 280.43 1112.19 286.34L1118.1 287.413ZM1119.81 268.163H1125.81V101.322H1119.81H1113.81V268.163H1119.81ZM1119.81 101.322H1125.81C1125.81 94.1453 1125.21 87.3492 1123.99 80.9481L1118.1 82.0708L1112.2 83.1935C1113.27 88.7708 1113.81 94.8085 1113.81 101.322H1119.81ZM1118.1 82.0708L1124 80.9975C1122.69 73.7923 1119.83 67.5536 1115.22 62.5874L1110.83 66.6701L1106.43 70.7528C1109.23 73.7721 1111.22 77.8006 1112.19 83.1441L1118.1 82.0708ZM1110.83 66.6701L1115.22 62.5874C1109.94 56.8966 1102.16 54.6809 1093.29 54.6809V60.6809V66.6809C1100.39 66.6809 1104.3 68.458 1106.43 70.7528L1110.83 66.6701ZM1093.29 60.6809V54.6809C1084.83 54.6809 1077.41 56.9791 1072.2 62.5874L1076.6 66.6701L1081 70.7528C1083.21 68.3755 1086.91 66.6809 1093.29 66.6809V60.6809ZM1076.6 66.6701L1072.2 62.5874C1067.59 67.5536 1064.74 73.7923 1063.43 80.9975L1069.33 82.0708L1075.23 83.1441C1076.2 77.8006 1078.19 73.7721 1081 70.7528L1076.6 66.6701ZM1069.33 82.0708L1063.43 80.9481C1062.22 87.3492 1061.62 94.1453 1061.62 101.322H1067.62H1073.62C1073.62 94.8085 1074.16 88.7708 1075.22 83.1935L1069.33 82.0708ZM1067.62 101.322H1061.62V268.163H1067.62H1073.62V101.322H1067.62ZM1067.62 268.163H1061.62C1061.62 274.984 1062.06 281.672 1062.96 288.224L1068.9 287.413L1074.85 286.603C1074.03 280.607 1073.62 274.461 1073.62 268.163H1067.62ZM1068.9 287.413L1063 288.487C1064.29 295.585 1066.94 301.763 1071.19 306.719L1075.75 302.814L1080.3 298.909C1077.7 295.88 1075.8 291.79 1074.8 286.34L1068.9 287.413ZM1075.75 302.814L1071.35 306.897C1076.63 312.588 1084.42 314.803 1093.29 314.803V308.803V302.803C1086.18 302.803 1082.27 301.026 1080.14 298.731L1075.75 302.814ZM1269.51 351.583L1266.7 356.886L1269.51 351.583ZM1236.57 316.076L1231.11 318.566L1231.12 318.584L1231.13 318.603L1236.57 316.076ZM1224.16 253.19L1223.27 247.256L1217.99 248.05L1218.17 253.39L1224.16 253.19ZM1289.62 243.35L1295.62 243.235L1295.49 236.401L1288.73 237.417L1289.62 243.35ZM1293.47 279.285L1287.65 280.741L1287.67 280.825L1287.69 280.91L1293.47 279.285ZM1303.73 298.964L1299.64 303.35L1299.71 303.416L1299.78 303.479L1303.73 298.964ZM1335.39 296.825L1329.97 294.256L1329.91 294.375L1329.86 294.497L1335.39 296.825ZM1328.97 243.778L1324.03 247.171L1324.05 247.205L1324.07 247.238L1328.97 243.778ZM1301.17 213.832L1297.23 218.356L1297.25 218.376L1297.27 218.396L1301.17 213.832ZM1271.22 187.737L1275.16 183.213L1275.13 183.186L1275.1 183.16L1271.22 187.737ZM1237.85 150.091L1232.75 153.252L1232.79 153.312L1232.83 153.371L1237.85 150.091ZM1250.69 30.3073L1254.67 34.7999L1254.69 34.7818L1254.71 34.7635L1250.69 30.3073ZM1366.19 16.19L1363.25 21.4159L1363.27 21.4318L1363.3 21.4473L1366.19 16.19ZM1391.86 41.0023L1386.62 43.9161L1386.66 44.0035L1386.72 44.0892L1391.86 41.0023ZM1403.84 73.0871L1397.93 74.1214L1397.94 74.2073L1397.96 74.2927L1403.84 73.0871ZM1407.69 105.172L1408.42 111.127L1413.84 110.459L1413.69 105.005L1407.69 105.172ZM1341.81 113.3L1335.81 113.467L1335.99 120.063L1342.54 119.255L1341.81 113.3ZM1339.67 86.7766L1333.71 87.4392L1333.72 87.5644L1333.74 87.6889L1339.67 86.7766ZM1333.68 69.2369L1328.84 72.7851L1328.9 72.8654L1328.96 72.9438L1333.68 69.2369ZM1303.31 71.8037L1298.1 68.8268L1298.04 68.9223L1297.99 69.0196L1303.31 71.8037ZM1307.59 121.428L1302.73 124.947L1302.79 125.043L1302.87 125.135L1307.59 121.428ZM1331.97 146.668L1327.99 151.16L1328 151.165L1328 151.171L1331.97 146.668ZM1360.63 171.908L1356.67 176.411L1356.71 176.447L1356.75 176.482L1360.63 171.908ZM1398.71 215.544L1393.63 218.747L1393.65 218.779L1393.67 218.81L1398.71 215.544ZM1403.41 320.354L1408.64 323.306L1408.65 323.282L1408.66 323.258L1403.41 320.354ZM1371.75 351.583L1368.81 346.354L1368.79 346.367L1368.77 346.38L1371.75 351.583ZM1323.84 363.134V357.134C1302.85 357.134 1285.77 353.401 1272.32 346.28L1269.51 351.583L1266.7 356.886C1282.34 365.166 1301.49 369.134 1323.84 369.134V363.134ZM1269.51 351.583L1272.32 346.28C1259.01 339.237 1248.92 328.421 1242.01 313.549L1236.57 316.076L1231.13 318.603C1239.05 335.673 1250.92 348.528 1266.7 356.886L1269.51 351.583ZM1236.57 316.076L1242.03 313.586C1235.05 298.292 1231 278.185 1230.16 252.99L1224.16 253.19L1218.17 253.39C1219.04 279.53 1223.26 301.347 1231.11 318.566L1236.57 316.076ZM1224.16 253.19L1225.06 259.123L1290.51 249.284L1289.62 243.35L1288.73 237.417L1223.27 247.256L1224.16 253.19ZM1289.62 243.35L1283.62 243.466C1283.91 258.521 1285.21 271 1287.65 280.741L1293.47 279.285L1299.29 277.83C1297.16 269.318 1295.9 257.84 1295.62 243.235L1289.62 243.35ZM1293.47 279.285L1287.69 280.91C1290.39 290.502 1294.21 298.278 1299.64 303.35L1303.73 298.964L1307.83 294.578C1304.71 291.665 1301.68 286.321 1299.24 277.661L1293.47 279.285ZM1303.73 298.964L1299.78 303.479C1305.48 308.465 1312.32 310.953 1319.99 310.953V304.953V298.953C1315.11 298.953 1311.11 297.448 1307.69 294.449L1303.73 298.964ZM1319.99 304.953V310.953C1324.61 310.953 1328.94 310.176 1332.63 308.227C1336.44 306.216 1339.25 303.123 1340.92 299.153L1335.39 296.825L1329.86 294.497C1329.25 295.946 1328.35 296.917 1327.03 297.615C1325.59 298.375 1323.36 298.953 1319.99 298.953V304.953ZM1335.39 296.825L1340.81 299.394C1343.76 293.173 1345.24 286.592 1345.24 279.713H1339.24H1333.24C1333.24 284.813 1332.16 289.64 1329.97 294.256L1335.39 296.825ZM1339.24 279.713H1345.24C1345.24 264.469 1341.57 251.217 1333.88 240.318L1328.97 243.778L1324.07 247.238C1330.07 255.733 1333.24 266.438 1333.24 279.713H1339.24ZM1328.97 243.778L1333.92 240.385C1326.71 229.87 1317.06 219.506 1305.06 209.269L1301.17 213.832L1297.27 218.396C1308.67 228.123 1317.55 237.723 1324.03 247.171L1328.97 243.778ZM1301.17 213.832L1305.11 209.309L1275.16 183.213L1271.22 187.737L1267.28 192.26L1297.23 218.356L1301.17 213.832ZM1271.22 187.737L1275.1 183.16C1262.41 172.4 1251.68 160.285 1242.88 146.81L1237.85 150.091L1232.83 153.371C1242.28 167.846 1253.79 180.828 1267.34 192.313L1271.22 187.737ZM1237.85 150.091L1242.95 146.929C1234.83 133.823 1230.59 117.442 1230.59 97.4715H1224.59H1218.59C1218.59 119.14 1223.2 137.838 1232.75 153.252L1237.85 150.091ZM1224.59 97.4715H1230.59C1230.59 69.3268 1238.88 48.7744 1254.67 34.7999L1250.69 30.3073L1246.71 25.8148C1227.7 42.6417 1218.59 66.8654 1218.59 97.4715H1224.59ZM1250.69 30.3073L1254.71 34.7635C1270.72 20.3241 1292.81 12.7785 1321.7 12.7785V6.7785V0.778496C1290.7 0.778496 1265.45 8.91877 1246.67 25.8512L1250.69 30.3073ZM1321.7 6.7785V12.7785C1339.64 12.7785 1353.34 15.8273 1363.25 21.4159L1366.19 16.19L1369.14 10.9642C1356.8 4.00404 1340.84 0.778496 1321.7 0.778496V6.7785ZM1366.19 16.19L1363.3 21.4473C1373.83 27.2385 1381.52 34.7411 1386.62 43.9161L1391.86 41.0023L1397.11 38.0884C1390.8 26.7292 1381.37 17.6903 1369.08 10.9327L1366.19 16.19ZM1391.86 41.0023L1386.72 44.0892C1392.33 53.443 1396.06 63.4426 1397.93 74.1214L1403.84 73.0871L1409.75 72.0528C1407.63 59.9157 1403.37 48.5254 1397.01 37.9153L1391.86 41.0023ZM1403.84 73.0871L1397.96 74.2927C1400.18 85.1086 1401.42 95.4548 1401.69 105.338L1407.69 105.172L1413.69 105.005C1413.39 94.3546 1412.06 83.311 1409.72 71.8814L1403.84 73.0871ZM1407.69 105.172L1406.95 99.217L1341.07 107.345L1341.81 113.3L1342.54 119.255L1408.42 111.127L1407.69 105.172ZM1341.81 113.3L1347.81 113.133C1347.52 102.701 1346.79 93.5975 1345.6 85.8642L1339.67 86.7766L1333.74 87.6889C1334.83 94.786 1335.53 103.365 1335.81 113.467L1341.81 113.3ZM1339.67 86.7766L1345.63 86.114C1344.71 77.8433 1342.5 70.7488 1338.4 65.53L1333.68 69.2369L1328.96 72.9438C1331.14 75.7105 1332.91 80.3092 1333.71 87.4392L1339.67 86.7766ZM1333.68 69.2369L1338.52 65.6887C1333.98 59.503 1327.1 56.8199 1319.14 56.8199V62.8199V68.8199C1324.29 68.8199 1327.1 70.4149 1328.84 72.7851L1333.68 69.2369ZM1319.14 62.8199V56.8199C1309.94 56.8199 1302.63 60.8918 1298.1 68.8268L1303.31 71.8037L1308.52 74.7805C1310.83 70.7372 1314.07 68.8199 1319.14 68.8199V62.8199ZM1303.31 71.8037L1297.99 69.0196C1294.46 75.7558 1292.6 82.6933 1292.6 89.7711H1298.6H1304.6C1304.6 84.8707 1305.88 79.8298 1308.62 74.5877L1303.31 71.8037ZM1298.6 89.7711H1292.6C1292.6 103.541 1295.82 115.416 1302.73 124.947L1307.59 121.428L1312.44 117.909C1307.37 110.899 1304.6 101.669 1304.6 89.7711H1298.6ZM1307.59 121.428L1302.87 125.135C1309.42 133.476 1317.82 142.149 1327.99 151.16L1331.97 146.668L1335.95 142.177C1326.16 133.505 1318.3 125.352 1312.3 117.721L1307.59 121.428ZM1331.97 146.668L1328 151.171L1356.67 176.411L1360.63 171.908L1364.6 167.405L1335.93 142.165L1331.97 146.668ZM1360.63 171.908L1356.75 176.482C1371.42 188.935 1383.7 203.021 1393.63 218.747L1398.71 215.544L1403.78 212.34C1393.18 195.553 1380.08 180.55 1364.52 167.334L1360.63 171.908ZM1398.71 215.544L1393.67 218.81C1403.46 233.887 1408.53 252.791 1408.53 275.863H1414.53H1420.53C1420.53 251.021 1415.06 229.713 1403.74 212.277L1398.71 215.544ZM1414.53 275.863H1408.53C1408.53 291.168 1405.05 304.989 1398.16 317.449L1403.41 320.354L1408.66 323.258C1416.6 308.91 1420.53 293.071 1420.53 275.863H1414.53ZM1403.41 320.354L1398.19 317.401C1391.34 329.526 1381.59 339.166 1368.81 346.354L1371.75 351.583L1374.7 356.812C1389.3 348.599 1400.66 337.42 1408.64 323.306L1403.41 320.354ZM1371.75 351.583L1368.77 346.38C1356.44 353.463 1341.54 357.134 1323.84 357.134V363.134V369.134C1343.22 369.134 1360.26 365.104 1374.74 356.786L1371.75 351.583ZM1469.32 351.583L1466.52 356.886L1469.32 351.583ZM1436.38 316.076L1430.92 318.566L1430.93 318.584L1430.94 318.603L1436.38 316.076ZM1423.98 253.19L1423.08 247.256L1417.8 248.05L1417.98 253.39L1423.98 253.19ZM1489.43 243.35L1495.43 243.235L1495.3 236.401L1488.54 237.417L1489.43 243.35ZM1493.28 279.285L1487.46 280.741L1487.48 280.825L1487.5 280.91L1493.28 279.285ZM1503.55 298.964L1499.45 303.35L1499.52 303.416L1499.6 303.479L1503.55 298.964ZM1535.2 296.825L1529.78 294.256L1529.72 294.375L1529.67 294.497L1535.2 296.825ZM1528.79 243.778L1523.84 247.171L1523.86 247.205L1523.88 247.238L1528.79 243.778ZM1500.98 213.832L1497.04 218.356L1497.06 218.376L1497.08 218.396L1500.98 213.832ZM1471.03 187.737L1474.98 183.213L1474.94 183.186L1474.91 183.16L1471.03 187.737ZM1437.67 150.091L1432.57 153.252L1432.6 153.312L1432.64 153.371L1437.67 150.091ZM1450.5 30.3073L1454.48 34.7999L1454.5 34.7818L1454.52 34.7635L1450.5 30.3073ZM1566 16.19L1563.06 21.4159L1563.08 21.4318L1563.11 21.4473L1566 16.19ZM1591.67 41.0023L1586.43 43.9161L1586.48 44.0035L1586.53 44.0892L1591.67 41.0023ZM1603.65 73.0871L1597.74 74.1214L1597.76 74.2073L1597.77 74.2927L1603.65 73.0871ZM1607.5 105.172L1608.24 111.127L1613.65 110.459L1613.5 105.005L1607.5 105.172ZM1541.62 113.3L1535.62 113.467L1535.81 120.063L1542.35 119.255L1541.62 113.3ZM1539.48 86.7766L1533.52 87.4392L1533.53 87.5644L1533.55 87.6889L1539.48 86.7766ZM1533.49 69.2369L1528.65 72.7851L1528.71 72.8654L1528.77 72.9438L1533.49 69.2369ZM1503.12 71.8037L1497.91 68.8268L1497.85 68.9223L1497.8 69.0196L1503.12 71.8037ZM1507.4 121.428L1502.54 124.947L1502.61 125.043L1502.68 125.135L1507.4 121.428ZM1531.78 146.668L1527.8 151.16L1527.81 151.165L1527.82 151.171L1531.78 146.668ZM1560.44 171.908L1556.48 176.411L1556.52 176.447L1556.56 176.482L1560.44 171.908ZM1598.52 215.544L1593.44 218.747L1593.46 218.779L1593.48 218.81L1598.52 215.544ZM1603.22 320.354L1608.45 323.306L1608.46 323.282L1608.47 323.258L1603.22 320.354ZM1571.57 351.583L1568.62 346.354L1568.6 346.367L1568.58 346.38L1571.57 351.583ZM1523.65 363.134V357.134C1502.66 357.134 1485.58 353.401 1472.13 346.28L1469.32 351.583L1466.52 356.886C1482.16 365.166 1501.3 369.134 1523.65 369.134V363.134ZM1469.32 351.583L1472.13 346.28C1458.83 339.237 1448.73 328.421 1441.82 313.549L1436.38 316.076L1430.94 318.603C1438.87 335.673 1450.73 348.528 1466.52 356.886L1469.32 351.583ZM1436.38 316.076L1441.84 313.586C1434.86 298.292 1430.81 278.185 1429.97 252.99L1423.98 253.19L1417.98 253.39C1418.85 279.53 1423.07 301.347 1430.92 318.566L1436.38 316.076ZM1423.98 253.19L1424.87 259.123L1490.32 249.284L1489.43 243.35L1488.54 237.417L1423.08 247.256L1423.98 253.19ZM1489.43 243.35L1483.43 243.466C1483.72 258.521 1485.02 271 1487.46 280.741L1493.28 279.285L1499.1 277.83C1496.97 269.318 1495.71 257.84 1495.43 243.235L1489.43 243.35ZM1493.28 279.285L1487.5 280.91C1490.2 290.502 1494.02 298.278 1499.45 303.35L1503.55 298.964L1507.64 294.578C1504.52 291.665 1501.49 286.321 1499.06 277.661L1493.28 279.285ZM1503.55 298.964L1499.6 303.479C1505.29 308.465 1512.13 310.953 1519.8 310.953V304.953V298.953C1514.93 298.953 1510.93 297.448 1507.5 294.449L1503.55 298.964ZM1519.8 304.953V310.953C1524.42 310.953 1528.75 310.176 1532.44 308.227C1536.25 306.216 1539.06 303.123 1540.73 299.153L1535.2 296.825L1529.67 294.497C1529.06 295.946 1528.16 296.917 1526.84 297.615C1525.4 298.375 1523.17 298.953 1519.8 298.953V304.953ZM1535.2 296.825L1540.63 299.394C1543.57 293.173 1545.05 286.592 1545.05 279.713H1539.05H1533.05C1533.05 284.813 1531.97 289.64 1529.78 294.256L1535.2 296.825ZM1539.05 279.713H1545.05C1545.05 264.469 1541.38 251.217 1533.69 240.318L1528.79 243.778L1523.88 247.238C1529.88 255.733 1533.05 266.438 1533.05 279.713H1539.05ZM1528.79 243.778L1533.73 240.385C1526.52 229.87 1516.87 219.506 1504.88 209.269L1500.98 213.832L1497.08 218.396C1508.48 228.123 1517.36 237.723 1523.84 247.171L1528.79 243.778ZM1500.98 213.832L1504.92 209.309L1474.98 183.213L1471.03 187.737L1467.09 192.26L1497.04 218.356L1500.98 213.832ZM1471.03 187.737L1474.91 183.16C1462.22 172.4 1451.49 160.285 1442.69 146.81L1437.67 150.091L1432.64 153.371C1442.09 167.846 1453.61 180.828 1467.15 192.313L1471.03 187.737ZM1437.67 150.091L1442.76 146.929C1434.64 133.823 1430.4 117.442 1430.4 97.4715H1424.4H1418.4C1418.4 119.14 1423.01 137.838 1432.57 153.252L1437.67 150.091ZM1424.4 97.4715H1430.4C1430.4 69.3268 1438.69 48.7744 1454.48 34.7999L1450.5 30.3073L1446.52 25.8148C1427.51 42.6417 1418.4 66.8654 1418.4 97.4715H1424.4ZM1450.5 30.3073L1454.52 34.7635C1470.53 20.3241 1492.63 12.7785 1521.51 12.7785V6.7785V0.778496C1490.51 0.778496 1465.26 8.91877 1446.48 25.8512L1450.5 30.3073ZM1521.51 6.7785V12.7785C1539.46 12.7785 1553.15 15.8273 1563.06 21.4159L1566 16.19L1568.95 10.9642C1556.61 4.00404 1540.65 0.778496 1521.51 0.778496V6.7785ZM1566 16.19L1563.11 21.4473C1573.64 27.2385 1581.33 34.7411 1586.43 43.9161L1591.67 41.0023L1596.92 38.0884C1590.61 26.7292 1581.18 17.6903 1568.9 10.9327L1566 16.19ZM1591.67 41.0023L1586.53 44.0892C1592.14 53.443 1595.87 63.4426 1597.74 74.1214L1603.65 73.0871L1609.56 72.0528C1607.44 59.9157 1603.18 48.5254 1596.82 37.9153L1591.67 41.0023ZM1603.65 73.0871L1597.77 74.2927C1599.99 85.1086 1601.23 95.4548 1601.5 105.338L1607.5 105.172L1613.5 105.005C1613.2 94.3546 1611.87 83.311 1609.53 71.8814L1603.65 73.0871ZM1607.5 105.172L1606.77 99.217L1540.89 107.345L1541.62 113.3L1542.35 119.255L1608.24 111.127L1607.5 105.172ZM1541.62 113.3L1547.62 113.133C1547.33 102.701 1546.6 93.5975 1545.41 85.8642L1539.48 86.7766L1533.55 87.6889C1534.64 94.786 1535.34 103.365 1535.62 113.467L1541.62 113.3ZM1539.48 86.7766L1545.44 86.114C1544.53 77.8433 1542.31 70.7488 1538.21 65.53L1533.49 69.2369L1528.77 72.9438C1530.95 75.7105 1532.73 80.3092 1533.52 87.4392L1539.48 86.7766ZM1533.49 69.2369L1538.33 65.6887C1533.79 59.503 1526.91 56.8199 1518.95 56.8199V62.8199V68.8199C1524.1 68.8199 1526.92 70.4149 1528.65 72.7851L1533.49 69.2369ZM1518.95 62.8199V56.8199C1509.75 56.8199 1502.44 60.8918 1497.91 68.8268L1503.12 71.8037L1508.33 74.7805C1510.64 70.7372 1513.88 68.8199 1518.95 68.8199V62.8199ZM1503.12 71.8037L1497.8 69.0196C1494.28 75.7558 1492.41 82.6933 1492.41 89.7711H1498.41H1504.41C1504.41 84.8707 1505.69 79.8298 1508.43 74.5877L1503.12 71.8037ZM1498.41 89.7711H1492.41C1492.41 103.541 1495.64 115.416 1502.54 124.947L1507.4 121.428L1512.26 117.909C1507.18 110.899 1504.41 101.669 1504.41 89.7711H1498.41ZM1507.4 121.428L1502.68 125.135C1509.23 133.476 1517.63 142.149 1527.8 151.16L1531.78 146.668L1535.76 142.177C1525.97 133.505 1518.11 125.352 1512.11 117.721L1507.4 121.428ZM1531.78 146.668L1527.82 151.171L1556.48 176.411L1560.44 171.908L1564.41 167.405L1535.75 142.165L1531.78 146.668ZM1560.44 171.908L1556.56 176.482C1571.23 188.935 1583.51 203.021 1593.44 218.747L1598.52 215.544L1603.59 212.34C1592.99 195.553 1579.89 180.55 1564.33 167.334L1560.44 171.908ZM1598.52 215.544L1593.48 218.81C1603.27 233.887 1608.35 252.791 1608.35 275.863H1614.35H1620.35C1620.35 251.021 1614.87 229.713 1603.55 212.277L1598.52 215.544ZM1614.35 275.863H1608.35C1608.35 291.168 1604.87 304.989 1597.97 317.449L1603.22 320.354L1608.47 323.258C1616.41 308.91 1620.35 293.071 1620.35 275.863H1614.35ZM1603.22 320.354L1598 317.401C1591.15 329.526 1581.4 339.166 1568.62 346.354L1571.57 351.583L1574.51 356.812C1589.11 348.599 1600.47 337.42 1608.45 323.306L1603.22 320.354ZM1571.57 351.583L1568.58 346.38C1556.25 353.463 1541.35 357.134 1523.65 357.134V363.134V369.134C1543.03 369.134 1560.08 365.104 1574.55 356.786L1571.57 351.583ZM1676.24 349.444L1673.13 354.58L1676.24 349.444ZM1643.72 58.9697L1638.13 56.7905L1643.72 58.9697ZM1676.24 20.468L1679.27 25.6471L1679.3 25.626L1679.34 25.6044L1676.24 20.468ZM1799.87 20.468L1796.77 25.6044L1796.82 25.6386L1796.88 25.6715L1799.87 20.468ZM1832.81 58.9697L1827.22 61.149L1832.81 58.9697ZM1832.81 310.087L1827.21 307.939L1832.81 310.087ZM1799.87 349.444L1796.81 344.282L1796.79 344.295L1796.77 344.308L1799.87 349.444ZM1755.38 302.814L1750.98 298.731L1755.38 302.814ZM1762.65 287.413L1768.55 288.487V288.487L1762.65 287.413ZM1762.65 82.0708L1756.75 83.1441L1756.75 83.1688L1756.76 83.1935L1762.65 82.0708ZM1755.38 66.6701L1750.98 70.7528L1755.38 66.6701ZM1721.15 66.6701L1725.55 70.7528H1725.55L1721.15 66.6701ZM1713.88 82.0708L1719.78 83.1935L1719.78 83.1688L1719.79 83.1441L1713.88 82.0708ZM1713.45 287.413L1707.51 288.224L1707.53 288.356L1707.55 288.487L1713.45 287.413ZM1720.3 302.814L1715.74 306.719L1715.82 306.809L1715.9 306.897L1720.3 302.814ZM1737.84 363.134V357.134C1712.5 357.134 1693.18 352.664 1679.34 344.308L1676.24 349.444L1673.13 354.58C1689.53 364.477 1711.27 369.134 1737.84 369.134V363.134ZM1676.24 349.444L1679.34 344.308C1665.41 335.899 1655.43 323.855 1649.33 307.939L1643.72 310.087L1638.12 312.234C1645.14 330.542 1656.83 344.736 1673.13 354.58L1676.24 349.444ZM1643.72 310.087L1649.33 307.939C1643.09 291.68 1639.88 272.053 1639.88 248.912H1633.88H1627.88C1627.88 273.113 1631.23 294.269 1638.12 312.234L1643.72 310.087ZM1633.88 248.912H1639.88V120.145H1633.88H1627.88V248.912H1633.88ZM1633.88 120.145H1639.88C1639.88 96.7039 1643.1 77.095 1649.31 61.149L1643.72 58.9697L1638.13 56.7905C1631.23 74.4979 1627.88 95.6723 1627.88 120.145H1633.88ZM1643.72 58.9697L1649.31 61.149C1655.4 45.5396 1665.36 33.7827 1679.27 25.6471L1676.24 20.468L1673.21 15.2889C1656.88 24.8356 1645.17 38.7465 1638.13 56.7905L1643.72 58.9697ZM1676.24 20.468L1679.34 25.6044C1693.18 17.2485 1712.5 12.7785 1737.84 12.7785V6.7785V0.778496C1711.27 0.778496 1689.53 5.43481 1673.13 15.3316L1676.24 20.468ZM1737.84 6.7785V12.7785C1763.48 12.7785 1782.94 17.2536 1796.77 25.6044L1799.87 20.468L1802.97 15.3316C1786.57 5.42975 1764.67 0.778496 1737.84 0.778496V6.7785ZM1799.87 20.468L1796.88 25.6715C1811.07 33.8186 1821.15 45.5743 1827.22 61.149L1832.81 58.9697L1838.4 56.7905C1831.35 38.7119 1819.47 24.7997 1802.86 15.2645L1799.87 20.468ZM1832.81 58.9697L1827.22 61.149C1833.44 77.095 1836.65 96.7039 1836.65 120.145H1842.65H1848.65C1848.65 95.6723 1845.3 74.4979 1838.4 56.7905L1832.81 58.9697ZM1842.65 120.145H1836.65V248.912H1842.65H1848.65V120.145H1842.65ZM1842.65 248.912H1836.65C1836.65 272.053 1833.44 291.68 1827.21 307.939L1832.81 310.087L1838.41 312.234C1845.3 294.269 1848.65 273.113 1848.65 248.912H1842.65ZM1832.81 310.087L1827.21 307.939C1821.12 323.821 1811.02 335.863 1796.81 344.282L1799.87 349.444L1802.93 354.606C1819.52 344.773 1831.38 330.576 1838.41 312.234L1832.81 310.087ZM1799.87 349.444L1796.77 344.308C1782.94 352.658 1763.48 357.134 1737.84 357.134V363.134V369.134C1764.67 369.134 1786.57 364.482 1802.97 354.58L1799.87 349.444ZM1737.84 308.803V314.803C1746.71 314.803 1754.49 312.588 1759.78 306.897L1755.38 302.814L1750.98 298.731C1748.85 301.026 1744.94 302.803 1737.84 302.803V308.803ZM1755.38 302.814L1759.78 306.897C1764.39 301.931 1767.24 295.692 1768.55 288.487L1762.65 287.413L1756.75 286.34C1755.78 291.684 1753.79 295.712 1750.98 298.731L1755.38 302.814ZM1762.65 287.413L1768.55 288.487C1769.76 281.848 1770.36 275.072 1770.36 268.163H1764.36H1758.36C1758.36 274.372 1757.82 280.43 1756.75 286.34L1762.65 287.413ZM1764.36 268.163H1770.36V101.322H1764.36H1758.36V268.163H1764.36ZM1764.36 101.322H1770.36C1770.36 94.1453 1769.76 87.3492 1768.55 80.9481L1762.65 82.0708L1756.76 83.1935C1757.82 88.7708 1758.36 94.8085 1758.36 101.322H1764.36ZM1762.65 82.0708L1768.55 80.9975C1767.24 73.7923 1764.39 67.5536 1759.78 62.5874L1755.38 66.6701L1750.98 70.7528C1753.79 73.7721 1755.78 77.8006 1756.75 83.1441L1762.65 82.0708ZM1755.38 66.6701L1759.78 62.5874C1754.49 56.8966 1746.71 54.6809 1737.84 54.6809V60.6809V66.6809C1744.94 66.6809 1748.85 68.458 1750.98 70.7528L1755.38 66.6701ZM1737.84 60.6809V54.6809C1729.38 54.6809 1721.97 56.9791 1716.76 62.5874L1721.15 66.6701L1725.55 70.7528C1727.76 68.3755 1731.47 66.6809 1737.84 66.6809V60.6809ZM1721.15 66.6701L1716.76 62.5874C1712.15 67.5536 1709.29 73.7923 1707.98 80.9975L1713.88 82.0708L1719.79 83.1441C1720.76 77.8006 1722.75 73.7721 1725.55 70.7528L1721.15 66.6701ZM1713.88 82.0708L1707.99 80.9481C1706.77 87.3492 1706.17 94.1453 1706.17 101.322H1712.17H1718.17C1718.17 94.8085 1718.71 88.7708 1719.78 83.1935L1713.88 82.0708ZM1712.17 101.322H1706.17V268.163H1712.17H1718.17V101.322H1712.17ZM1712.17 268.163H1706.17C1706.17 274.984 1706.62 281.672 1707.51 288.224L1713.45 287.413L1719.4 286.603C1718.58 280.607 1718.17 274.461 1718.17 268.163H1712.17ZM1713.45 287.413L1707.55 288.487C1708.84 295.585 1711.5 301.763 1715.74 306.719L1720.3 302.814L1724.85 298.909C1722.26 295.88 1720.35 291.79 1719.36 286.34L1713.45 287.413ZM1720.3 302.814L1715.9 306.897C1721.19 312.588 1728.97 314.803 1737.84 314.803V308.803V302.803C1730.74 302.803 1726.83 301.026 1724.7 298.731L1720.3 302.814Z" fill="#FFE9D9" mask="url(#path-1-outside-1_106_199)"/>
<defs>
<radialGradient id="paint0_radial_106_199" cx="0" cy="0" r="1" gradientUnits="userSpaceOnUse" gradientTransform="translate(922.147 165) scale(621.244 183.437)">
<stop stop-color="white"/>
<stop offset="1" stop-color="#FFE9D9"/>
</radialGradient>
</defs>
</svg>
