<svg width="198" height="57" viewBox="0 0 198 57" fill="none" xmlns="http://www.w3.org/2000/svg">
<path d="M80.9493 48V12.5977H90.1714C91.6866 12.5977 93.1143 12.7143 94.4546 12.9474C95.8241 13.1805 97.0333 13.6321 98.0823 14.3023C99.1312 14.9433 99.9471 15.8757 100.53 17.0995C101.142 18.2941 101.448 19.8821 101.448 21.8635C101.448 23.2912 101.229 24.5005 100.792 25.4911C100.384 26.4527 99.7868 27.2248 99.0001 27.8076C98.2425 28.3903 97.3247 28.7837 96.2466 28.9877C97.6161 29.1625 98.767 29.6141 99.6994 30.3426C100.632 31.0419 101.331 31.9888 101.797 33.1835C102.293 34.3781 102.54 35.8204 102.54 37.5104C102.54 39.3461 102.293 40.9341 101.797 42.2744C101.331 43.5856 100.646 44.6637 99.7431 45.5087C98.8399 46.3537 97.7181 46.9802 96.3777 47.3881C95.0665 47.796 93.5514 48 91.8322 48H80.9493ZM88.7728 42.5367H90.4336C92.1528 42.5367 93.3328 42.0996 93.9739 41.2255C94.644 40.3514 94.9791 39.0693 94.9791 37.3793C94.9791 36.039 94.8334 34.9755 94.542 34.1887C94.2507 33.402 93.7699 32.8338 93.0997 32.4842C92.4296 32.1054 91.5263 31.916 90.3899 31.916H88.7728V42.5367ZM88.7728 26.7586H90.3025C91.4972 26.7586 92.4004 26.5838 93.0123 26.2341C93.6242 25.8554 94.0321 25.3163 94.2361 24.617C94.4692 23.9177 94.5858 23.0727 94.5858 22.082C94.5858 21.1496 94.4109 20.3775 94.0613 19.7656C93.7408 19.1245 93.2454 18.6438 92.5753 18.3233C91.9342 18.0027 91.1184 17.8425 90.1277 17.8425H88.7728V26.7586ZM104.765 48L105.376 12.5977H113.768L117.658 33.1835L121.854 12.5977H129.94L130.551 48H125.001L124.345 24.4422L120.237 48H115.298L110.927 24.2673L110.403 48H104.765ZM133.921 48V12.5977H143.143C144.659 12.5977 146.086 12.7143 147.427 12.9474C148.796 13.1805 150.005 13.6321 151.054 14.3023C152.103 14.9433 152.919 15.8757 153.502 17.0995C154.114 18.2941 154.42 19.8821 154.42 21.8635C154.42 23.2912 154.201 24.5005 153.764 25.4911C153.356 26.4527 152.759 27.2248 151.972 27.8076C151.215 28.3903 150.297 28.7837 149.219 28.9877C150.588 29.1625 151.739 29.6141 152.671 30.3426C153.604 31.0419 154.303 31.9888 154.769 33.1835C155.265 34.3781 155.512 35.8204 155.512 37.5104C155.512 39.3461 155.265 40.9341 154.769 42.2744C154.303 43.5856 153.618 44.6637 152.715 45.5087C151.812 46.3537 150.69 46.9802 149.35 47.3881C148.039 47.796 146.523 48 144.804 48H133.921ZM141.745 42.5367H143.406C145.125 42.5367 146.305 42.0996 146.946 41.2255C147.616 40.3514 147.951 39.0693 147.951 37.3793C147.951 36.039 147.805 34.9755 147.514 34.1887C147.223 33.402 146.742 32.8338 146.072 32.4842C145.402 32.1054 144.498 31.916 143.362 31.916H141.745V42.5367ZM141.745 26.7586H143.274C144.469 26.7586 145.372 26.5838 145.984 26.2341C146.596 25.8554 147.004 25.3163 147.208 24.617C147.441 23.9177 147.558 23.0727 147.558 22.082C147.558 21.1496 147.383 20.3775 147.033 19.7656C146.713 19.1245 146.217 18.6438 145.547 18.3233C144.906 18.0027 144.09 17.8425 143.1 17.8425H141.745V26.7586ZM167.265 48.5245C165.05 48.5245 163.2 48.1311 161.714 47.3444C160.228 46.5577 159.106 45.3485 158.348 43.7168C157.591 42.0559 157.168 39.9143 157.081 37.2919L163.768 36.2866C163.797 37.8018 163.928 39.0256 164.161 39.958C164.424 40.8904 164.773 41.5606 165.21 41.9685C165.677 42.3764 166.23 42.5804 166.871 42.5804C167.687 42.5804 168.212 42.3036 168.445 41.75C168.707 41.1963 168.838 40.6136 168.838 40.0017C168.838 38.5448 168.488 37.321 167.789 36.3304C167.09 35.3105 166.143 34.2907 164.948 33.2709L161.889 30.6048C160.548 29.4684 159.412 28.1864 158.48 26.7586C157.576 25.3017 157.125 23.5098 157.125 21.3827C157.125 18.3815 158.013 16.0942 159.791 14.5208C161.568 12.9182 163.987 12.1169 167.046 12.1169C168.94 12.1169 170.455 12.4374 171.592 13.0785C172.757 13.7195 173.631 14.5645 174.214 15.6135C174.826 16.6333 175.234 17.7259 175.438 18.8914C175.671 20.0278 175.802 21.1205 175.831 22.1694L169.1 22.9999C169.071 21.9509 168.998 21.0476 168.882 20.2901C168.794 19.5033 168.59 18.906 168.27 18.4981C167.949 18.061 167.454 17.8425 166.784 17.8425C166.055 17.8425 165.516 18.1484 165.167 18.7603C164.846 19.3722 164.686 19.9841 164.686 20.596C164.686 21.9072 164.992 22.9853 165.604 23.8303C166.245 24.6461 167.075 25.5057 168.095 26.409L171.023 28.9877C172.568 30.2989 173.864 31.7849 174.913 33.4457C175.991 35.1066 176.53 37.1608 176.53 39.6083C176.53 41.2692 176.152 42.7844 175.394 44.1538C174.636 45.4942 173.558 46.5577 172.16 47.3444C170.79 48.1311 169.159 48.5245 167.265 48.5245ZM187.242 48.5245C185.027 48.5245 183.177 48.1311 181.691 47.3444C180.205 46.5577 179.083 45.3485 178.325 43.7168C177.568 42.0559 177.145 39.9143 177.058 37.2919L183.745 36.2866C183.774 37.8018 183.905 39.0256 184.138 39.958C184.401 40.8904 184.75 41.5606 185.187 41.9685C185.654 42.3764 186.207 42.5804 186.848 42.5804C187.664 42.5804 188.189 42.3036 188.422 41.75C188.684 41.1963 188.815 40.6136 188.815 40.0017C188.815 38.5448 188.465 37.321 187.766 36.3304C187.067 35.3105 186.12 34.2907 184.925 33.2709L181.866 30.6048C180.525 29.4684 179.389 28.1864 178.457 26.7586C177.553 25.3017 177.102 23.5098 177.102 21.3827C177.102 18.3815 177.99 16.0942 179.768 14.5208C181.545 12.9182 183.964 12.1169 187.023 12.1169C188.917 12.1169 190.432 12.4374 191.569 13.0785C192.734 13.7195 193.608 14.5645 194.191 15.6135C194.803 16.6333 195.211 17.7259 195.415 18.8914C195.648 20.0278 195.779 21.1205 195.808 22.1694L189.077 22.9999C189.048 21.9509 188.975 21.0476 188.859 20.2901C188.771 19.5033 188.567 18.906 188.247 18.4981C187.926 18.061 187.431 17.8425 186.761 17.8425C186.032 17.8425 185.493 18.1484 185.144 18.7603C184.823 19.3722 184.663 19.9841 184.663 20.596C184.663 21.9072 184.969 22.9853 185.581 23.8303C186.222 24.6461 187.052 25.5057 188.072 26.409L191 28.9877C192.545 30.2989 193.841 31.7849 194.89 33.4457C195.968 35.1066 196.507 37.1608 196.507 39.6083C196.507 41.2692 196.129 42.7844 195.371 44.1538C194.613 45.4942 193.535 46.5577 192.137 47.3444C190.767 48.1311 189.136 48.5245 187.242 48.5245Z" fill="#FFE9D9"/>
<path d="M56.8176 39.1449C57.93 39.1449 58.8287 38.2371 58.8175 37.1246L58.7106 26.5658C58.6841 23.9419 57.6273 21.4335 55.7681 19.5817L43.0503 6.9148C41.1761 5.04808 38.6387 4 35.9934 4L23.4252 4C21.6665 4 20.7641 6.10666 21.9774 7.3798L37.3629 23.5236C39.1352 25.3833 40.1238 27.8537 40.1238 30.4226L40.1238 37.1449C40.1238 38.2494 41.0193 39.1449 42.1238 39.1449L56.8176 39.1449Z" fill="#FFE9D9"/>
<path d="M38.082 54.6232C39.1866 54.6232 40.082 53.7277 40.082 52.6232L40.082 42.4519C40.082 39.813 39.039 37.2811 37.1801 35.408L24.3566 22.4857C22.4466 20.5611 19.8369 19.4945 17.1256 19.5305L4.62408 19.6966C2.87222 19.7199 1.99488 21.8246 3.21152 23.0853L18.5636 38.9931C20.3626 40.8572 21.368 43.3467 21.368 45.9373L21.368 52.6232C21.368 53.7278 22.2634 54.6232 23.368 54.6232L38.082 54.6232Z" fill="#FFE9D9"/>
</svg>
