<svg width="43" height="43" viewBox="0 0 43 43" fill="none" xmlns="http://www.w3.org/2000/svg">
<path d="M22.4439 33.5301C21.9191 35.8823 21.5859 37.0766 20.7892 37.8733C19.2159 39.4466 17.2845 39.0409 15.7103 37.4667C15.0164 36.7728 14.5694 36.324 14.0263 34.603C14.0263 34.603 13.964 33.1983 12.1785 31.5507C10.5145 29.7496 9.10128 29.6949 9.10128 29.6949C7.38073 29.1514 6.95505 28.7132 6.26203 28.0202C4.68783 26.446 4.28038 24.5146 5.85457 22.9404C6.65124 22.1437 7.84601 21.8128 10.1986 21.2866C10.1986 21.2866 14.7918 20.1461 17.6364 20.2933C19.6905 20.401 21.263 21.9805 21.263 21.9805L21.7491 22.4667C21.7491 22.4667 23.3985 24.1072 23.4377 26.0946C23.4897 28.9418 22.4435 33.5306 22.4439 33.5301ZM19.5771 16.4604C21.2229 18.1062 24.636 17.3611 27.2003 14.7967C29.7647 12.2324 30.5098 8.81933 28.8639 7.17351C27.2181 5.5277 23.8051 6.27276 21.2407 8.83712C18.6764 11.4015 17.9313 14.8145 19.5771 16.4604ZM12.2243 18.1017C13.9974 18.7547 16.2597 17.0457 17.277 14.2839C18.2943 11.522 17.6822 8.75349 15.9096 8.10006C14.137 7.44663 11.8747 9.1565 10.857 11.9179C9.83967 14.6798 10.4522 17.4478 12.2243 18.1017ZM26.5051 23.3883C28.1509 25.0342 31.5644 24.2895 34.1288 21.7252C36.6931 19.1608 37.4377 15.7473 35.7919 14.1015C34.1461 12.4557 30.7331 13.2008 28.1687 15.7651C25.6043 18.3295 24.8593 21.7425 26.5051 23.3883ZM34.8663 27.0558C34.2128 25.2824 31.4448 24.6707 28.6825 25.6885C25.9202 26.7062 24.2112 28.9685 24.8646 30.742C25.5185 32.515 28.2866 33.1267 31.0484 32.1094C33.8103 31.0921 35.5197 28.8293 34.8663 27.0558Z" fill="#FF9D73"/>
</svg>
