<svg width="60" height="60" viewBox="0 0 60 60" fill="none" xmlns="http://www.w3.org/2000/svg">
<path d="M50.4961 36.8472L44.9062 34.0523C43.4756 33.3424 42.2723 32.246 41.4328 30.8873C40.5933 29.5286 40.151 27.9619 40.1562 26.3648V20.6246C40.1562 20.003 39.9093 19.4068 39.4698 18.9673C39.0302 18.5277 38.4341 18.2808 37.8125 18.2808C35.5341 18.2782 33.3497 17.372 31.7387 15.7609C30.1276 14.1498 29.2213 11.9655 29.2187 9.68705C29.2187 9.25079 29.0968 8.82321 28.8669 8.45243C28.637 8.08166 28.3082 7.78241 27.9175 7.58836C27.5267 7.39431 27.0896 7.31317 26.6553 7.35407C26.2209 7.39497 25.8066 7.55629 25.459 7.81987L10.4199 19.2281L10.3613 19.273C9.93569 19.6174 9.58722 20.0475 9.33853 20.5353C9.08984 21.0231 8.94648 21.5578 8.91775 22.1046C8.88902 22.6513 8.97556 23.1981 9.17176 23.7093C9.36797 24.2204 9.66945 24.6847 10.0566 25.0718L32.2598 47.2828C32.4776 47.5003 32.7361 47.6729 33.0207 47.7905C33.3052 47.9081 33.6101 47.9685 33.918 47.9683H48.75C49.786 47.9683 50.7796 47.5568 51.5121 46.8242C52.2447 46.0916 52.6562 45.0981 52.6562 44.0621V40.3394C52.6586 39.6136 52.4574 38.9016 52.0756 38.2844C51.6938 37.6671 51.1466 37.1692 50.4961 36.8472ZM47.9687 43.2808H34.8828L14 22.3921L16.5117 20.4859L24.5586 28.5328C24.9989 28.9731 25.5961 29.2204 26.2187 29.2204C26.8414 29.2204 27.4386 28.9731 27.8789 28.5328C28.3192 28.0925 28.5666 27.4953 28.5666 26.8726C28.5666 26.2499 28.3192 25.6527 27.8789 25.2124L20.2832 17.6265L25.2129 13.8882C25.9719 16.1497 27.324 18.1659 29.1279 19.7267C30.9319 21.2874 33.1217 22.3354 35.4687 22.7613V26.3648C35.4602 28.8331 36.1435 31.2543 37.4412 33.354C38.7389 35.4536 40.599 37.1475 42.8105 38.2437L47.9687 40.8238V43.2808ZM15.8379 40.9371H11.25C10.6284 40.9371 10.0323 40.6901 9.59272 40.2506C9.15318 39.811 8.90625 39.2149 8.90625 38.5933C8.90625 37.9717 9.15318 37.3756 9.59272 36.936C10.0323 36.4965 10.6284 36.2496 11.25 36.2496H15.8379C16.4595 36.2496 17.0556 36.4965 17.4952 36.936C17.9347 37.3756 18.1816 37.9717 18.1816 38.5933C18.1816 39.2149 17.9347 39.811 17.4952 40.2506C17.0556 40.6901 16.4595 40.9371 15.8379 40.9371ZM25.2129 45.6246C25.2129 46.2462 24.966 46.8423 24.5264 47.2818C24.0869 47.7214 23.4907 47.9683 22.8691 47.9683H14.375C13.7534 47.9683 13.1573 47.7214 12.7177 47.2818C12.2782 46.8423 12.0312 46.2462 12.0312 45.6246C12.0312 45.003 12.2782 44.4068 12.7177 43.9673C13.1573 43.5277 13.7534 43.2808 14.375 43.2808H22.8691C23.4907 43.2808 24.0869 43.5277 24.5264 43.9673C24.966 44.4068 25.2129 45.003 25.2129 45.6246Z" fill="#FFE9D9"/>
</svg>
