<svg width="39" height="34" viewBox="0 0 39 34" fill="none" xmlns="http://www.w3.org/2000/svg">
<path d="M0.69355 22.3936C0.818161 22.2845 1.29583 21.8484 1.75793 21.4175L2.59386 20.6438L2.83789 19.9377C3.2948 18.6293 3.19615 18.7902 3.63747 18.6553C3.85035 18.5929 4.12553 18.5151 4.24495 18.4839L4.46821 18.4268L4.46821 17.8609C4.46821 17.2015 4.38514 17.2793 5.21587 17.1911C5.49625 17.1651 5.72989 17.134 5.73508 17.1236C5.74028 17.1132 5.87008 16.7549 6.02584 16.3292C6.17641 15.8982 6.30622 15.5452 6.31141 15.5348C6.32179 15.5244 7.28752 15.3998 7.61463 15.3687C7.61463 15.3687 7.6977 15.0104 7.79116 14.5743L7.9625 13.7799L8.61151 13.4476L9.25533 13.1101L9.93031 12.3157C10.2989 11.8847 10.6053 11.5265 10.6105 11.5265C10.6157 11.5265 10.8233 11.6044 11.0726 11.703L11.5295 11.8847L12.5523 10.6334L13.5752 9.38215L14.2501 9.4133L14.9303 9.44446L15.4184 8.31777C15.6884 7.69991 15.9272 7.16512 15.9532 7.13397C15.9791 7.10282 16.4101 6.77571 16.9189 6.40707L17.8379 5.74248L18.7465 5.49326C19.2449 5.35827 19.9251 5.15058 20.2574 5.03636L20.8649 4.81829L21.6749 4.11216L22.4848 3.40084L23.3831 3.02182L24.2865 2.6376L25.6053 1.31881L26.9241 1.33514e-05L25.5274 0.597105C24.2501 1.14747 24.0632 1.21496 23.2948 1.37592C22.8379 1.47457 22.3914 1.57841 22.3135 1.59918C22.2304 1.61995 21.8098 1.92109 21.3789 2.26377L20.5897 2.89202L19.4215 3.1672C18.7777 3.31777 18.2065 3.45795 18.1442 3.48392C18.0819 3.50468 17.7496 3.91486 17.3966 4.39773L16.7527 5.27519L15.5326 5.57633C14.8576 5.74248 14.1255 5.9294 13.9023 5.98651L13.5025 6.09035L12.6146 7.17031C12.1318 7.76741 11.7112 8.26585 11.68 8.28142C11.6541 8.30219 10.9687 8.42161 10.164 8.55141C9.35917 8.68122 8.69459 8.79025 8.68939 8.79544C8.6842 8.80063 8.71535 9.31465 8.75689 9.93771C8.79324 10.566 8.82439 11.0852 8.814 11.0904C8.80362 11.1007 8.33114 11.1838 7.76001 11.2721C7.19407 11.3655 6.72159 11.4434 6.7112 11.4538C6.70082 11.459 6.73716 11.7809 6.79427 12.1703C6.84619 12.5597 6.87735 12.892 6.86177 12.9024C6.84619 12.918 6.29064 13.2399 5.62605 13.6137C4.96146 13.9876 4.41629 14.3198 4.41629 14.3562C4.41629 14.3873 4.4734 14.5795 4.5409 14.7819L4.66551 15.1506L3.98535 15.6075L3.31037 16.0696L2.66655 17.1859L2.02792 18.3022L1.99677 18.9252L1.96042 19.5483L1.26468 20.945C0.387215 22.6999 0.407984 22.6532 0.69355 22.3936Z" fill="#BFE9FF"/>
<path d="M2.7654 33.1983C2.80693 33.1723 3.76228 32.4091 4.88897 31.5004L6.93985 29.8441L7.08523 29.0601C7.16311 28.624 7.2358 28.2606 7.24619 28.2502C7.25657 28.2398 7.67194 28.11 8.16519 27.9594C8.93881 27.731 9.06342 27.679 9.05304 27.5908C9.04785 27.5389 9.01669 27.1391 8.98035 26.7133L8.91804 25.9345L9.45802 25.1713C9.75397 24.7507 10.0343 24.4028 10.0759 24.4028C10.1174 24.4028 10.4445 24.4755 10.8028 24.5586C12.4746 24.9584 12.7914 25.0311 12.8069 25.0103C12.8173 24.9999 12.5733 24.4911 12.2566 23.8836C11.945 23.2709 11.6958 22.7673 11.701 22.7621C11.7062 22.7569 12.215 22.4817 12.8277 22.1443L13.944 21.5368L14.7072 20.623L15.4757 19.704L16.6854 19.0705L17.8952 18.4319L18.1185 17.7258L18.3365 17.0145L19.5047 15.7009C20.1486 14.974 20.6885 14.3821 20.7093 14.3821C20.7301 14.3821 21.1974 14.3094 21.7425 14.2263L22.7394 14.0705L23.3261 14.4392C23.648 14.6417 23.9492 14.8286 23.9959 14.8493C24.0686 14.8909 24.1153 14.7403 24.3334 13.7694L24.5878 12.6427L25.7976 11.381L27.0125 10.1245L27.6408 10.1193C27.9887 10.1141 28.7311 10.0986 29.2867 10.0778L30.2991 10.0466L30.8235 9.01342L31.3531 7.97499L32.4694 7.19618C33.0873 6.76523 34.2919 5.94488 35.1434 5.37375C36.0001 4.80262 36.6958 4.33014 36.6854 4.31975C36.6802 4.30937 35.9482 4.48071 35.0707 4.69878L33.4663 5.09338L32.376 5.7995L31.2856 6.50044L30.377 6.44332C29.8786 6.41217 29.4217 6.38621 29.3594 6.38621C29.2971 6.38621 29.0323 6.5887 28.7104 6.88465L28.1704 7.3779L27.5733 7.34675L26.9762 7.32079L26.3116 7.92827L25.647 8.54093L24.7799 8.7642C24.3023 8.88881 23.7934 9.02899 23.6429 9.07053L23.3729 9.14322L22.7446 10.1193L22.1164 11.0903L21.2026 11.272L20.2888 11.4485L19.1517 12.3935C18.5286 12.9127 17.7914 13.5357 17.511 13.7798L16.997 14.2159L16.431 14.1692C14.5619 14.0134 13.3261 13.92 13.3054 13.9355C13.295 13.9511 13.6636 14.3976 14.1205 14.9376C14.5826 15.4724 14.9513 15.9345 14.9409 15.9605C14.9305 15.9864 14.458 16.3083 13.8921 16.6718L12.8589 17.3364L12.3344 18.2086L11.81 19.0809L10.5899 20.0259L9.37495 20.9708L9.15169 22.0196C9.03227 22.6012 8.90247 23.11 8.86093 23.1567C8.82459 23.1983 8.53383 23.5409 8.21711 23.9148C7.71348 24.5119 7.54733 24.7611 6.86716 25.9501L6.09354 27.3104L5.47568 27.705C5.13819 27.9231 4.82666 28.1359 4.78513 28.1723C4.72801 28.2242 4.76955 28.3125 5.05512 28.7227L5.3926 29.2107L4.04266 31.2253C3.30019 32.3364 2.72386 33.219 2.7654 33.1983Z" fill="#BFE9FF"/>
<path d="M12.1003 33.6344C12.1262 33.624 12.7701 33.245 13.5229 32.7881L14.8936 31.9574L14.9559 31.5939C15.065 30.9449 15.0338 30.9865 15.7347 30.488L16.3838 30.0259L16.5032 29.5586L16.6278 29.0913L17.1003 28.8992L17.5779 28.7123L18.5904 27.6479C19.3121 26.8899 19.7171 26.5057 20.0079 26.3084C20.4025 26.0436 20.4128 26.028 20.7451 25.4049C20.932 25.0571 21.1034 24.7611 21.1242 24.7507C21.1449 24.7404 21.3941 24.7507 21.6797 24.7663L22.1989 24.8027L22.7908 24.2263C23.1127 23.9096 23.8448 23.1308 24.4108 22.4974L25.444 21.3447L26.1086 21.137C26.472 21.0228 26.8355 20.9138 26.9134 20.893C27.0224 20.867 27.308 20.5763 27.931 19.865L28.8033 18.8681L29.9196 18.5202C30.6101 18.3073 31.1293 18.1723 31.2747 18.1723L31.5136 18.1723L32.0587 17.5077C32.4066 17.0872 32.9622 16.5109 33.606 15.9138C34.6081 14.9792 34.6132 14.9792 35.3869 14.5794C36.0982 14.2108 36.254 14.1017 37.2041 13.3125C37.7752 12.84 38.31 12.3935 38.3983 12.3208C38.606 12.1495 38.6371 12.1339 37.2093 12.9543L35.9684 13.6708L34.9871 13.8837L34.0058 14.0965L33.2114 14.73L32.417 15.3686L31.1501 15.8307L29.8884 16.298L29.1563 17.0301L28.4191 17.7674L26.7939 18.1723C25.4751 18.5046 25.148 18.6033 25.0546 18.7019C24.9923 18.7694 24.7275 19.0602 24.4627 19.3509C23.9954 19.865 23.9383 19.9065 22.5728 20.7736C21.7939 21.2668 21.0878 21.7237 20.9995 21.786C20.9061 21.8535 20.5842 22.3001 20.2726 22.7933L19.7119 23.676L19.3744 23.7746C19.1875 23.8317 18.9123 23.9096 18.7721 23.9512L18.5125 24.0238L18.5125 24.5482L18.5125 25.0778L17.6818 25.4724C17.2249 25.6905 16.8251 25.893 16.7939 25.9138C16.7628 25.9397 16.6486 26.2616 16.5343 26.6355L16.3318 27.3104L15.3142 28.1671L14.2913 29.0238L14.39 29.569C14.4471 29.8702 14.4731 30.1505 14.4523 30.1869C14.4263 30.2232 14.12 30.6334 13.7617 31.0955C13.1698 31.8587 11.9809 33.676 12.1003 33.6344Z" fill="#BFE9FF"/>
</svg>
