<svg width="47" height="46" viewBox="0 0 47 46" fill="none" xmlns="http://www.w3.org/2000/svg">
<path d="M45.3877 31.9537C46.2758 31.9537 46.9934 31.2295 46.9853 30.3414L46.8933 20.3116C46.8753 18.348 46.1347 16.4599 44.8128 15.0077L34.4277 3.59847C32.9139 1.9354 30.7692 0.987456 28.5203 0.987456L18.4742 0.987456C17.1063 0.987456 16.371 2.59452 17.2653 3.62959L30.1074 18.4928C31.3611 19.9439 32.051 21.7976 32.051 23.7153L32.051 30.3561C32.051 31.2384 32.7663 31.9537 33.6487 31.9537L45.3877 31.9537Z" fill="#FFE9D9"/>
<path d="M30.42 45.5917C31.3024 45.5917 32.0176 44.8764 32.0176 43.9941L32.0176 34.3022C32.0176 32.3293 31.2875 30.4261 29.968 28.9595L19.4957 17.3195C17.9535 15.6053 15.7458 14.6412 13.4402 14.675L3.45281 14.8213C2.09138 14.8413 1.37728 16.4461 2.27384 17.4708L15.0924 32.1216C16.3664 33.5777 17.0686 35.4468 17.0686 37.3816L17.0686 43.9941C17.0686 44.8764 17.7839 45.5917 18.6662 45.5917L30.42 45.5917Z" fill="#FFE9D9"/>
</svg>
