<svg width="60" height="60" viewBox="0 0 60 60" fill="none" xmlns="http://www.w3.org/2000/svg">
<path d="M12 18.3996V13.5996C12 13.2329 12.1587 12.9496 12.476 12.7496C12.7933 12.5496 13.118 12.5329 13.45 12.6996L18.2 15.0996C18.5667 15.2662 18.75 15.5662 18.75 15.9996C18.75 16.4329 18.5667 16.7329 18.2 16.8996L13.45 19.2996C13.1167 19.4662 12.7913 19.4496 12.474 19.2496C12.1567 19.0496 11.9987 18.7662 12 18.3996ZM42 18.3996V13.5996C42 13.2329 42.1587 12.9496 42.476 12.7496C42.7933 12.5496 43.118 12.5329 43.45 12.6996L48.2 15.0996C48.5667 15.2662 48.75 15.5662 48.75 15.9996C48.75 16.4329 48.5667 16.7329 48.2 16.8996L43.45 19.2996C43.1167 19.4662 42.7913 19.4496 42.474 19.2496C42.1567 19.0496 41.9987 18.7662 42 18.3996ZM28 16.3996V11.5996C28 11.2329 28.1587 10.9496 28.476 10.7496C28.7933 10.5496 29.118 10.5329 29.45 10.6996L34.2 13.0996C34.5667 13.2662 34.75 13.5662 34.75 13.9996C34.75 14.4329 34.5667 14.7329 34.2 14.8996L29.45 17.2996C29.1167 17.4662 28.792 17.4496 28.476 17.2496C28.16 17.0496 28.0013 16.7662 28 16.3996ZM26.3 49.9496C21.6333 49.6829 17.75 48.9916 14.65 47.8756C11.55 46.7596 10 45.4676 10 43.9996V25.9996C10 25.1662 10.5253 24.3916 11.576 23.6756C12.6267 22.9596 14.0513 22.3262 15.85 21.7756C17.6487 21.2249 19.7653 20.7916 22.2 20.4756C24.6347 20.1596 27.2347 20.0009 30 19.9996C32.7653 19.9982 35.3653 20.1569 37.8 20.4756C40.2347 20.7942 42.3513 21.2276 44.15 21.7756C45.9487 22.3236 47.374 22.9569 48.426 23.6756C49.478 24.3942 50.0027 25.1689 50 25.9996V43.9996C50 45.4996 48.442 46.7996 45.326 47.8996C42.21 48.9996 38.318 49.6829 33.65 49.9496C33.1833 49.9829 32.792 49.8409 32.476 49.5236C32.16 49.2062 32.0013 48.8156 32 48.3516V41.9996H28V48.2996C28 48.7662 27.8333 49.1662 27.5 49.4996C27.1667 49.8329 26.7667 49.9829 26.3 49.9496ZM30 27.9996C33.2333 27.9996 36.0253 27.8076 38.376 27.4236C40.7267 27.0396 42.6013 26.5982 44 26.0996C44 25.9329 42.7333 25.5416 40.2 24.9256C37.6667 24.3096 34.2667 24.0009 30 23.9996C25.7333 23.9982 22.3333 24.3069 19.8 24.9256C17.2667 25.5442 16 25.9356 16 26.0996C17.4 26.5996 19.2747 27.0416 21.624 27.4256C23.9733 27.8096 26.7653 28.0009 30 27.9996ZM24 45.6996V41.9996C24 40.8996 24.392 39.9582 25.176 39.1756C25.96 38.3929 26.9013 38.0009 28 37.9996H32C33.1 37.9996 34.042 38.3916 34.826 39.1756C35.61 39.9596 36.0013 40.9009 36 41.9996V45.6996C38.6667 45.4329 40.85 45.0416 42.55 44.5256C44.25 44.0096 45.4 43.5509 46 43.1496V29.5996C44.1667 30.3329 41.8667 30.9162 39.1 31.3496C36.3333 31.7829 33.3 31.9996 30 31.9996C26.7 31.9996 23.6667 31.7829 20.9 31.3496C18.1333 30.9162 15.8333 30.3329 14 29.5996V43.1496C14.6 43.5496 15.75 44.0082 17.45 44.5256C19.15 45.0429 21.3333 45.4342 24 45.6996Z" fill="#FFE9D9"/>
</svg>
