<svg width="87" height="87" viewBox="0 0 87 87" fill="none" xmlns="http://www.w3.org/2000/svg">
<g clip-path="url(#clip0_106_533)">
<path d="M6.9845 42.9082C26.4938 34.4084 39.5032 28.8048 46.0122 26.0973C64.5974 18.3671 68.4592 17.0243 70.9762 16.98C71.5298 16.9702 72.7679 17.1074 73.5695 17.7581C74.2465 18.3074 74.4328 19.0495 74.522 19.5704C74.6113 20.0913 74.722 21.2778 74.6339 22.2049C73.6267 32.787 69.269 58.467 67.052 70.319C66.1139 75.3341 64.2669 77.0153 62.4785 77.18C58.5922 77.5377 55.6409 74.6117 51.8769 72.1445C45.9869 68.2834 42.6594 65.8798 36.942 62.112C30.3346 57.758 34.6179 55.3647 38.3834 51.4539C39.369 50.4303 56.4923 34.8554 56.8236 33.4425C56.8648 33.2658 56.9035 32.6072 56.512 32.2593C56.1209 31.9115 55.5435 32.0305 55.1267 32.1251C54.5359 32.2592 45.1262 38.4783 26.8982 50.7831C24.2273 52.6168 21.8082 53.5106 19.6407 53.4638C17.2512 53.4121 12.6548 52.1127 9.23782 51.0021C5.04679 49.6395 1.71583 48.9193 2.00589 46.6057C2.15696 45.4007 3.81649 44.1682 6.9845 42.9082Z" fill="white"/>
</g>
<defs>
<clipPath id="clip0_106_533">
<rect width="87.0006" height="87.0006" fill="white"/>
</clipPath>
</defs>
</svg>
