<svg width="26" height="26" viewBox="0 0 26 26" fill="none" xmlns="http://www.w3.org/2000/svg">
<path d="M9.35105 1.13281C12.2204 2.37091 14.2373 5.26679 14.2373 8.62434C14.2373 10.2402 13.7799 11.7301 12.9897 12.9891C13.0105 12.8003 13.0105 12.6114 13.0105 12.4226C13.0105 7.91086 9.39263 4.28051 4.94301 4.28051C4.25686 4.28051 3.61229 4.36445 2.98851 4.53233C4.4232 2.5178 6.73118 1.19577 9.35105 1.13281Z" fill="#BFE9FF"/>
<path d="M21.3686 3.88216C21.7428 7.02986 20.2665 10.2195 17.3764 11.9193C16.0041 12.7167 14.4862 13.0734 12.9891 13.0105C13.1555 12.9265 13.3218 12.8426 13.4882 12.7377C17.3556 10.4923 18.6655 5.49799 16.4407 1.59484C16.108 1.00727 15.6922 0.461662 15.2555 0C17.7091 0.251816 19.9962 1.61582 21.3686 3.88216Z" fill="#BFE9FF"/>
<path d="M25.0077 15.7595C22.4918 17.6481 19.0195 17.9629 16.1293 16.2841C14.757 15.4867 13.6965 14.3325 13.0104 13.0105C13.1559 13.1154 13.3223 13.2203 13.4886 13.3043C17.3561 15.5496 22.2839 14.2276 24.5295 10.3245C24.8622 9.73688 25.1325 9.10734 25.2988 8.49879C26.2969 10.7441 26.2553 13.4302 25.0077 15.7595Z" fill="#BFE9FF"/>
<path d="M16.6492 24.8671C13.7798 23.629 11.7629 20.7331 11.7629 17.3755C11.7629 15.7597 12.2204 14.2698 13.0105 13.0107C12.9897 13.1996 12.9897 13.3885 12.9897 13.5773C12.9897 18.089 16.6076 21.7194 21.0572 21.7194C21.7434 21.7194 22.3879 21.6354 23.0117 21.4676C21.577 23.4821 19.2691 24.8041 16.6492 24.8671Z" fill="#BFE9FF"/>
<path d="M4.63133 22.1178C4.25706 18.9701 5.73334 15.7805 8.62351 14.0807C9.99582 13.2833 11.5137 12.9266 13.0107 12.9895C12.8444 13.0734 12.6781 13.1574 12.5117 13.2623C8.6443 15.5077 7.33437 20.502 9.55918 24.4052C9.89186 24.9927 10.3077 25.5383 10.7444 26C8.29082 25.7482 6.00364 24.3842 4.63133 22.1178Z" fill="#BFE9FF"/>
<path d="M0.991928 10.2405C3.50783 8.35189 6.9802 8.03712 9.87037 9.7159C11.2427 10.5133 12.3031 11.6675 12.9893 12.9895C12.8437 12.8846 12.6774 12.7797 12.511 12.6957C8.6436 10.4504 3.71576 11.7724 1.47016 15.6755C1.13747 16.2631 0.867174 16.8927 0.700833 17.5012C-0.297212 15.2559 -0.255628 12.5698 0.991928 10.2405Z" fill="#BFE9FF"/>
</svg>
