<svg width="390" height="64" viewBox="0 0 390 64" fill="none" xmlns="http://www.w3.org/2000/svg">
<mask id="path-1-outside-1_106_2010" maskUnits="userSpaceOnUse" x="-11.4688" y="0" width="414" height="64" fill="black">
<rect fill="white" x="-11.4688" width="414" height="64"/>
<path d="M-9.90102 61V2.43076H3.04206V26.1477H12.1528V2.43076H25.0959V61H12.1528V35.4031H3.04206V61H-9.90102ZM48.6213 61.8677C44.2347 61.8677 40.7639 61.0964 38.209 59.5538C35.6541 58.0113 33.8223 55.7938 32.7136 52.9015C31.6049 50.0092 31.0506 46.5626 31.0506 42.5615V20.7969C31.0506 16.7477 31.6049 13.301 32.7136 10.4569C33.8223 7.61282 35.6541 5.44359 38.209 3.94923C40.7639 2.40666 44.2347 1.63538 48.6213 1.63538C53.0562 1.63538 56.5511 2.40666 59.1059 3.94923C61.709 5.44359 63.5649 7.61282 64.6736 10.4569C65.7823 13.301 66.3367 16.7477 66.3367 20.7969V42.5615C66.3367 46.5626 65.7823 50.0092 64.6736 52.9015C63.5649 55.7938 61.709 58.0113 59.1059 59.5538C56.5511 61.0964 53.0562 61.8677 48.6213 61.8677ZM48.6213 52.6846C49.9711 52.6846 50.9593 52.3472 51.5859 51.6723C52.2126 50.9974 52.6224 50.1297 52.8152 49.0692C53.008 48.0087 53.1044 46.9241 53.1044 45.8154V17.6154C53.1044 16.4585 53.008 15.3738 52.8152 14.3615C52.6224 13.301 52.2126 12.4333 51.5859 11.7585C50.9593 11.0836 49.9711 10.7461 48.6213 10.7461C47.368 10.7461 46.428 11.0836 45.8013 11.7585C45.1747 12.4333 44.7649 13.301 44.5721 14.3615C44.3793 15.3738 44.2829 16.4585 44.2829 17.6154V45.8154C44.2829 46.9241 44.3552 48.0087 44.4998 49.0692C44.6926 50.1297 45.0782 50.9974 45.6567 51.6723C46.2834 52.3472 47.2716 52.6846 48.6213 52.6846ZM76.7445 61L69.6583 2.43076H80.6491L84.1199 36.56L88.5307 2.50307H97.1353L101.763 36.3431L105.306 2.43076H116.152L109.138 61H97.8583L92.8691 25.6415L88.1691 61H76.7445ZM136.697 61V2.43076H149.64V61H136.697ZM161.482 61V12.0477H152.661V2.43076H183.247V12.0477H174.498V61H161.482ZM207.266 61L200.179 2.43076H211.17L214.641 36.56L219.052 2.50307H227.656L232.284 36.3431L235.827 2.43076H246.673L239.659 61H228.379L223.39 25.6415L218.69 61H207.266ZM267.589 61.8677C263.203 61.8677 259.732 61.0964 257.177 59.5538C254.622 58.0113 252.79 55.7938 251.682 52.9015C250.573 50.0092 250.019 46.5626 250.019 42.5615V20.7969C250.019 16.7477 250.573 13.301 251.682 10.4569C252.79 7.61282 254.622 5.44359 257.177 3.94923C259.732 2.40666 263.203 1.63538 267.589 1.63538C272.024 1.63538 275.519 2.40666 278.074 3.94923C280.677 5.44359 282.533 7.61282 283.642 10.4569C284.75 13.301 285.305 16.7477 285.305 20.7969V42.5615C285.305 46.5626 284.75 50.0092 283.642 52.9015C282.533 55.7938 280.677 58.0113 278.074 59.5538C275.519 61.0964 272.024 61.8677 267.589 61.8677ZM267.589 52.6846C268.939 52.6846 269.927 52.3472 270.554 51.6723C271.181 50.9974 271.59 50.1297 271.783 49.0692C271.976 48.0087 272.072 46.9241 272.072 45.8154V17.6154C272.072 16.4585 271.976 15.3738 271.783 14.3615C271.59 13.301 271.181 12.4333 270.554 11.7585C269.927 11.0836 268.939 10.7461 267.589 10.7461C266.336 10.7461 265.396 11.0836 264.769 11.7585C264.143 12.4333 263.733 13.301 263.54 14.3615C263.347 15.3738 263.251 16.4585 263.251 17.6154V45.8154C263.251 46.9241 263.323 48.0087 263.468 49.0692C263.661 50.1297 264.046 50.9974 264.625 51.6723C265.251 52.3472 266.24 52.6846 267.589 52.6846ZM291.013 61V2.43076H307.137C311.09 2.43076 314.513 2.86461 317.405 3.7323C320.297 4.6 322.539 6.16666 324.129 8.4323C325.768 10.6497 326.588 13.8072 326.588 17.9046C326.588 20.3149 326.395 22.46 326.009 24.34C325.624 26.22 324.901 27.859 323.84 29.2569C322.828 30.6067 321.358 31.7395 319.429 32.6554L327.456 61H314.079L307.643 34.7523H303.956V61H291.013ZM303.956 27.3046H307.571C309.403 27.3046 310.825 26.9913 311.837 26.3646C312.849 25.6897 313.548 24.7497 313.934 23.5446C314.368 22.2913 314.585 20.7969 314.585 19.0615C314.585 16.5549 314.127 14.6026 313.211 13.2046C312.295 11.8067 310.608 11.1077 308.149 11.1077H303.956V27.3046ZM332.2 61V2.43076H345.143V26.3646L354.977 2.43076H367.63L356.784 28.8954L368.137 61H354.977L346.517 35.1138L345.143 37.4277V61H332.2ZM385.261 61.8677C381.597 61.8677 378.536 61.2169 376.078 59.9154C373.62 58.6138 371.764 56.6133 370.51 53.9138C369.257 51.1662 368.558 47.6231 368.413 43.2846L379.476 41.6215C379.525 44.1282 379.742 46.1528 380.127 47.6954C380.561 49.2379 381.14 50.3467 381.863 51.0215C382.634 51.6964 383.55 52.0338 384.61 52.0338C385.96 52.0338 386.828 51.5759 387.213 50.66C387.647 49.7441 387.864 48.78 387.864 47.7677C387.864 45.3574 387.286 43.3328 386.129 41.6938C384.972 40.0067 383.405 38.3195 381.429 36.6323L376.367 32.2215C374.15 30.3415 372.27 28.2205 370.727 25.8585C369.233 23.4482 368.486 20.4836 368.486 16.9646C368.486 11.9995 369.956 8.21538 372.896 5.6123C375.837 2.96102 379.838 1.63538 384.9 1.63538C388.033 1.63538 390.54 2.16564 392.42 3.22615C394.348 4.28666 395.794 5.68461 396.758 7.42C397.77 9.10718 398.445 10.9149 398.783 12.8431C399.168 14.7231 399.385 16.5308 399.433 18.2662L388.298 19.64C388.25 17.9046 388.129 16.4103 387.936 15.1569C387.792 13.8554 387.454 12.8672 386.924 12.1923C386.394 11.4692 385.574 11.1077 384.466 11.1077C383.261 11.1077 382.369 11.6138 381.79 12.6262C381.26 13.6385 380.995 14.6508 380.995 15.6631C380.995 17.8323 381.501 19.6159 382.513 21.0138C383.574 22.3636 384.948 23.7856 386.635 25.28L391.48 29.5462C394.034 31.7154 396.18 34.1738 397.915 36.9215C399.699 39.6692 400.59 43.0677 400.59 47.1169C400.59 49.8646 399.964 52.3713 398.71 54.6369C397.457 56.8544 395.673 58.6138 393.36 59.9154C391.094 61.2169 388.394 61.8677 385.261 61.8677Z"/>
</mask>
<path d="M-9.90102 61V2.43076H3.04206V26.1477H12.1528V2.43076H25.0959V61H12.1528V35.4031H3.04206V61H-9.90102ZM48.6213 61.8677C44.2347 61.8677 40.7639 61.0964 38.209 59.5538C35.6541 58.0113 33.8223 55.7938 32.7136 52.9015C31.6049 50.0092 31.0506 46.5626 31.0506 42.5615V20.7969C31.0506 16.7477 31.6049 13.301 32.7136 10.4569C33.8223 7.61282 35.6541 5.44359 38.209 3.94923C40.7639 2.40666 44.2347 1.63538 48.6213 1.63538C53.0562 1.63538 56.5511 2.40666 59.1059 3.94923C61.709 5.44359 63.5649 7.61282 64.6736 10.4569C65.7823 13.301 66.3367 16.7477 66.3367 20.7969V42.5615C66.3367 46.5626 65.7823 50.0092 64.6736 52.9015C63.5649 55.7938 61.709 58.0113 59.1059 59.5538C56.5511 61.0964 53.0562 61.8677 48.6213 61.8677ZM48.6213 52.6846C49.9711 52.6846 50.9593 52.3472 51.5859 51.6723C52.2126 50.9974 52.6224 50.1297 52.8152 49.0692C53.008 48.0087 53.1044 46.9241 53.1044 45.8154V17.6154C53.1044 16.4585 53.008 15.3738 52.8152 14.3615C52.6224 13.301 52.2126 12.4333 51.5859 11.7585C50.9593 11.0836 49.9711 10.7461 48.6213 10.7461C47.368 10.7461 46.428 11.0836 45.8013 11.7585C45.1747 12.4333 44.7649 13.301 44.5721 14.3615C44.3793 15.3738 44.2829 16.4585 44.2829 17.6154V45.8154C44.2829 46.9241 44.3552 48.0087 44.4998 49.0692C44.6926 50.1297 45.0782 50.9974 45.6567 51.6723C46.2834 52.3472 47.2716 52.6846 48.6213 52.6846ZM76.7445 61L69.6583 2.43076H80.6491L84.1199 36.56L88.5307 2.50307H97.1353L101.763 36.3431L105.306 2.43076H116.152L109.138 61H97.8583L92.8691 25.6415L88.1691 61H76.7445ZM136.697 61V2.43076H149.64V61H136.697ZM161.482 61V12.0477H152.661V2.43076H183.247V12.0477H174.498V61H161.482ZM207.266 61L200.179 2.43076H211.17L214.641 36.56L219.052 2.50307H227.656L232.284 36.3431L235.827 2.43076H246.673L239.659 61H228.379L223.39 25.6415L218.69 61H207.266ZM267.589 61.8677C263.203 61.8677 259.732 61.0964 257.177 59.5538C254.622 58.0113 252.79 55.7938 251.682 52.9015C250.573 50.0092 250.019 46.5626 250.019 42.5615V20.7969C250.019 16.7477 250.573 13.301 251.682 10.4569C252.79 7.61282 254.622 5.44359 257.177 3.94923C259.732 2.40666 263.203 1.63538 267.589 1.63538C272.024 1.63538 275.519 2.40666 278.074 3.94923C280.677 5.44359 282.533 7.61282 283.642 10.4569C284.75 13.301 285.305 16.7477 285.305 20.7969V42.5615C285.305 46.5626 284.75 50.0092 283.642 52.9015C282.533 55.7938 280.677 58.0113 278.074 59.5538C275.519 61.0964 272.024 61.8677 267.589 61.8677ZM267.589 52.6846C268.939 52.6846 269.927 52.3472 270.554 51.6723C271.181 50.9974 271.59 50.1297 271.783 49.0692C271.976 48.0087 272.072 46.9241 272.072 45.8154V17.6154C272.072 16.4585 271.976 15.3738 271.783 14.3615C271.59 13.301 271.181 12.4333 270.554 11.7585C269.927 11.0836 268.939 10.7461 267.589 10.7461C266.336 10.7461 265.396 11.0836 264.769 11.7585C264.143 12.4333 263.733 13.301 263.54 14.3615C263.347 15.3738 263.251 16.4585 263.251 17.6154V45.8154C263.251 46.9241 263.323 48.0087 263.468 49.0692C263.661 50.1297 264.046 50.9974 264.625 51.6723C265.251 52.3472 266.24 52.6846 267.589 52.6846ZM291.013 61V2.43076H307.137C311.09 2.43076 314.513 2.86461 317.405 3.7323C320.297 4.6 322.539 6.16666 324.129 8.4323C325.768 10.6497 326.588 13.8072 326.588 17.9046C326.588 20.3149 326.395 22.46 326.009 24.34C325.624 26.22 324.901 27.859 323.84 29.2569C322.828 30.6067 321.358 31.7395 319.429 32.6554L327.456 61H314.079L307.643 34.7523H303.956V61H291.013ZM303.956 27.3046H307.571C309.403 27.3046 310.825 26.9913 311.837 26.3646C312.849 25.6897 313.548 24.7497 313.934 23.5446C314.368 22.2913 314.585 20.7969 314.585 19.0615C314.585 16.5549 314.127 14.6026 313.211 13.2046C312.295 11.8067 310.608 11.1077 308.149 11.1077H303.956V27.3046ZM332.2 61V2.43076H345.143V26.3646L354.977 2.43076H367.63L356.784 28.8954L368.137 61H354.977L346.517 35.1138L345.143 37.4277V61H332.2ZM385.261 61.8677C381.597 61.8677 378.536 61.2169 376.078 59.9154C373.62 58.6138 371.764 56.6133 370.51 53.9138C369.257 51.1662 368.558 47.6231 368.413 43.2846L379.476 41.6215C379.525 44.1282 379.742 46.1528 380.127 47.6954C380.561 49.2379 381.14 50.3467 381.863 51.0215C382.634 51.6964 383.55 52.0338 384.61 52.0338C385.96 52.0338 386.828 51.5759 387.213 50.66C387.647 49.7441 387.864 48.78 387.864 47.7677C387.864 45.3574 387.286 43.3328 386.129 41.6938C384.972 40.0067 383.405 38.3195 381.429 36.6323L376.367 32.2215C374.15 30.3415 372.27 28.2205 370.727 25.8585C369.233 23.4482 368.486 20.4836 368.486 16.9646C368.486 11.9995 369.956 8.21538 372.896 5.6123C375.837 2.96102 379.838 1.63538 384.9 1.63538C388.033 1.63538 390.54 2.16564 392.42 3.22615C394.348 4.28666 395.794 5.68461 396.758 7.42C397.77 9.10718 398.445 10.9149 398.783 12.8431C399.168 14.7231 399.385 16.5308 399.433 18.2662L388.298 19.64C388.25 17.9046 388.129 16.4103 387.936 15.1569C387.792 13.8554 387.454 12.8672 386.924 12.1923C386.394 11.4692 385.574 11.1077 384.466 11.1077C383.261 11.1077 382.369 11.6138 381.79 12.6262C381.26 13.6385 380.995 14.6508 380.995 15.6631C380.995 17.8323 381.501 19.6159 382.513 21.0138C383.574 22.3636 384.948 23.7856 386.635 25.28L391.48 29.5462C394.034 31.7154 396.18 34.1738 397.915 36.9215C399.699 39.6692 400.59 43.0677 400.59 47.1169C400.59 49.8646 399.964 52.3713 398.71 54.6369C397.457 56.8544 395.673 58.6138 393.36 59.9154C391.094 61.2169 388.394 61.8677 385.261 61.8677Z" fill="url(#paint0_linear_106_2010)"/>
<path d="M-9.90102 61H-11.3472V62.4462H-9.90102V61ZM-9.90102 2.43076V0.98461H-11.3472V2.43076H-9.90102ZM3.04206 2.43076H4.48821V0.98461H3.04206V2.43076ZM3.04206 26.1477H1.5959V27.5938H3.04206V26.1477ZM12.1528 26.1477V27.5938H13.599V26.1477H12.1528ZM12.1528 2.43076V0.98461H10.7067V2.43076H12.1528ZM25.0959 2.43076H26.5421V0.98461H25.0959V2.43076ZM25.0959 61V62.4462H26.5421V61H25.0959ZM12.1528 61H10.7067V62.4462H12.1528V61ZM12.1528 35.4031H13.599V33.9569H12.1528V35.4031ZM3.04206 35.4031V33.9569H1.5959V35.4031H3.04206ZM3.04206 61V62.4462H4.48821V61H3.04206ZM-9.90102 61H-8.45487V2.43076H-9.90102H-11.3472V61H-9.90102ZM-9.90102 2.43076V3.87692H3.04206V2.43076V0.98461H-9.90102V2.43076ZM3.04206 2.43076H1.5959V26.1477H3.04206H4.48821V2.43076H3.04206ZM3.04206 26.1477V27.5938H12.1528V26.1477V24.7015H3.04206V26.1477ZM12.1528 26.1477H13.599V2.43076H12.1528H10.7067V26.1477H12.1528ZM12.1528 2.43076V3.87692H25.0959V2.43076V0.98461H12.1528V2.43076ZM25.0959 2.43076H23.6498V61H25.0959H26.5421V2.43076H25.0959ZM25.0959 61V59.5538H12.1528V61V62.4462H25.0959V61ZM12.1528 61H13.599V35.4031H12.1528H10.7067V61H12.1528ZM12.1528 35.4031V33.9569H3.04206V35.4031V36.8492H12.1528V35.4031ZM3.04206 35.4031H1.5959V61H3.04206H4.48821V35.4031H3.04206ZM3.04206 61V59.5538H-9.90102V61V62.4462H3.04206V61ZM38.209 59.5538L37.4615 60.7918L37.4615 60.7918L38.209 59.5538ZM32.7136 10.4569L31.3662 9.93166L31.3662 9.93166L32.7136 10.4569ZM38.209 3.94923L38.9392 5.19753L38.9479 5.19244L38.9565 5.18723L38.209 3.94923ZM59.1059 3.94923L58.3585 5.18723L58.3721 5.19547L58.3859 5.20341L59.1059 3.94923ZM64.6736 10.4569L63.3262 10.9822L63.3262 10.9822L64.6736 10.4569ZM64.6736 52.9015L63.3233 52.3839L63.3233 52.3839L64.6736 52.9015ZM59.1059 59.5538L58.3687 58.3097L58.3585 58.3158L59.1059 59.5538ZM51.5859 51.6723L50.5262 50.6883L50.5262 50.6883L51.5859 51.6723ZM52.8152 49.0692L54.238 49.3279L54.238 49.3279L52.8152 49.0692ZM52.8152 14.3615L51.3923 14.6202L51.3946 14.6321L52.8152 14.3615ZM51.5859 11.7585L50.5262 12.7425L50.5262 12.7425L51.5859 11.7585ZM45.8013 11.7585L46.8611 12.7425L46.8611 12.7425L45.8013 11.7585ZM44.5721 14.3615L45.9928 14.6321L45.9949 14.6202L44.5721 14.3615ZM44.4998 49.0692L43.0669 49.2646L43.0712 49.2964L43.077 49.3279L44.4998 49.0692ZM45.6567 51.6723L44.5587 52.6135L44.5774 52.6353L44.597 52.6563L45.6567 51.6723ZM48.6213 61.8677V60.4215C44.3822 60.4215 41.2038 59.6727 38.9565 58.3158L38.209 59.5538L37.4615 60.7918C40.324 62.5201 44.0871 63.3138 48.6213 63.3138V61.8677ZM38.209 59.5538L38.9565 58.3158C36.6882 56.9463 35.0622 54.988 34.064 52.3839L32.7136 52.9015L31.3633 53.4192C32.5825 56.5997 34.6201 59.0763 37.4615 60.7918L38.209 59.5538ZM32.7136 52.9015L34.064 52.3839C33.0341 49.6972 32.4967 46.4347 32.4967 42.5615H31.0506H29.6044C29.6044 46.6904 30.1758 50.3213 31.3633 53.4192L32.7136 52.9015ZM31.0506 42.5615H32.4967V20.7969H31.0506H29.6044V42.5615H31.0506ZM31.0506 20.7969H32.4967C32.4967 16.872 33.0351 13.614 34.061 10.9822L32.7136 10.4569L31.3662 9.93166C30.1748 12.988 29.6044 16.6234 29.6044 20.7969H31.0506ZM32.7136 10.4569L34.061 10.9822C35.0554 8.43147 36.675 6.52183 38.9392 5.19753L38.209 3.94923L37.4789 2.70093C34.6333 4.36534 32.5893 6.79416 31.3662 9.93166L32.7136 10.4569ZM38.209 3.94923L38.9565 5.18723C41.2038 3.83037 44.3822 3.08153 48.6213 3.08153V1.63538V0.189227C44.0871 0.189227 40.324 0.982957 37.4615 2.71123L38.209 3.94923ZM48.6213 1.63538V3.08153C52.9122 3.08153 56.1132 3.83159 58.3585 5.18723L59.1059 3.94923L59.8534 2.71123C56.9889 0.981739 53.2002 0.189227 48.6213 0.189227V1.63538ZM59.1059 3.94923L58.3859 5.20341C60.6976 6.53047 62.3352 8.43982 63.3262 10.9822L64.6736 10.4569L66.021 9.93166C64.7947 6.78581 62.7204 4.3567 59.8259 2.69505L59.1059 3.94923ZM64.6736 10.4569L63.3262 10.9822C64.3522 13.614 64.8906 16.872 64.8906 20.7969H66.3367H67.7829C67.7829 16.6234 67.2125 12.988 66.021 9.93166L64.6736 10.4569ZM66.3367 20.7969H64.8906V42.5615H66.3367H67.7829V20.7969H66.3367ZM66.3367 42.5615H64.8906C64.8906 46.4347 64.3532 49.6972 63.3233 52.3839L64.6736 52.9015L66.024 53.4192C67.2115 50.3213 67.7829 46.6904 67.7829 42.5615H66.3367ZM64.6736 52.9015L63.3233 52.3839C62.3282 54.9797 60.6843 56.9375 58.3687 58.3097L59.1059 59.5538L59.8432 60.798C62.7338 59.085 64.8016 56.608 66.024 53.4192L64.6736 52.9015ZM59.1059 59.5538L58.3585 58.3158C56.1132 59.6715 52.9122 60.4215 48.6213 60.4215V61.8677V63.3138C53.2002 63.3138 56.9889 62.5213 59.8534 60.7918L59.1059 59.5538ZM48.6213 52.6846V54.1308C50.1843 54.1308 51.639 53.7405 52.6457 52.6563L51.5859 51.6723L50.5262 50.6883C50.2796 50.9539 49.7578 51.2385 48.6213 51.2385V52.6846ZM51.5859 51.6723L52.6457 52.6563C53.4902 51.7468 54.0044 50.6128 54.238 49.3279L52.8152 49.0692L51.3923 48.8105C51.2403 49.6467 50.935 50.248 50.5262 50.6883L51.5859 51.6723ZM52.8152 49.0692L54.238 49.3279C54.4468 48.1797 54.5506 47.0084 54.5506 45.8154H53.1044H51.6582C51.6582 46.8398 51.5692 47.8378 51.3923 48.8105L52.8152 49.0692ZM53.1044 45.8154H54.5506V17.6154H53.1044H51.6582V45.8154H53.1044ZM53.1044 17.6154H54.5506C54.5506 16.3785 54.4475 15.2025 54.2358 14.0909L52.8152 14.3615L51.3946 14.6321C51.5685 15.5452 51.6582 16.5384 51.6582 17.6154H53.1044ZM52.8152 14.3615L54.238 14.1028C54.0044 12.818 53.4902 11.6839 52.6457 10.7744L51.5859 11.7585L50.5262 12.7425C50.935 13.1827 51.2403 13.7841 51.3923 14.6202L52.8152 14.3615ZM51.5859 11.7585L52.6457 10.7744C51.639 9.69029 50.1843 9.3 48.6213 9.3V10.7461V12.1923C49.7578 12.1923 50.2796 12.4769 50.5262 12.7425L51.5859 11.7585ZM48.6213 10.7461V9.3C47.1165 9.3 45.7298 9.71017 44.7416 10.7744L45.8013 11.7585L46.8611 12.7425C47.1262 12.457 47.6195 12.1923 48.6213 12.1923V10.7461ZM45.8013 11.7585L44.7416 10.7744C43.8971 11.6839 43.3829 12.818 43.1493 14.1028L44.5721 14.3615L45.9949 14.6202C46.1469 13.7841 46.4523 13.1827 46.8611 12.7425L45.8013 11.7585ZM44.5721 14.3615L43.1515 14.0909C42.9398 15.2025 42.8367 16.3785 42.8367 17.6154H44.2829H45.729C45.729 16.5384 45.8188 15.5452 45.9927 14.6321L44.5721 14.3615ZM44.2829 17.6154H42.8367V45.8154H44.2829H45.729V17.6154H44.2829ZM44.2829 45.8154H42.8367C42.8367 46.9871 42.9131 48.1371 43.0669 49.2646L44.4998 49.0692L45.9327 48.8738C45.7972 47.8803 45.729 46.8611 45.729 45.8154H44.2829ZM44.4998 49.0692L43.077 49.3279C43.3059 50.5871 43.7812 51.7064 44.5587 52.6135L45.6567 51.6723L46.7547 50.7312C46.3753 50.2885 46.0793 49.6724 45.9226 48.8105L44.4998 49.0692ZM45.6567 51.6723L44.597 52.6563C45.6037 53.7405 47.0584 54.1308 48.6213 54.1308V52.6846V51.2385C47.4848 51.2385 46.9631 50.9539 46.7164 50.6883L45.6567 51.6723ZM76.7445 61L75.3088 61.1737L75.4628 62.4462H76.7445V61ZM69.6583 2.43076V0.98461H68.0267L68.2227 2.60446L69.6583 2.43076ZM80.6491 2.43076L82.0879 2.28445L81.9557 0.98461H80.6491V2.43076ZM84.1199 36.56L82.6812 36.7063L85.5541 36.7457L84.1199 36.56ZM88.5307 2.50307V1.05692H87.2597L87.0965 2.31733L88.5307 2.50307ZM97.1353 2.50307L98.5681 2.30713L98.3971 1.05692H97.1353V2.50307ZM101.763 36.3431L100.33 36.539L103.201 36.4933L101.763 36.3431ZM105.306 2.43076V0.98461H104.003L103.868 2.28049L105.306 2.43076ZM116.152 2.43076L117.588 2.60272L117.782 0.98461H116.152V2.43076ZM109.138 61V62.4462H110.422L110.574 61.172L109.138 61ZM97.8583 61L96.4264 61.2021L96.6019 62.4462H97.8583V61ZM92.8691 25.6415L94.3011 25.4395L91.4356 25.451L92.8691 25.6415ZM88.1691 61V62.4462H89.4358L89.6027 61.1906L88.1691 61ZM76.7445 61L78.1802 60.8263L71.094 2.25706L69.6583 2.43076L68.2227 2.60446L75.3088 61.1737L76.7445 61ZM69.6583 2.43076V3.87692H80.6491V2.43076V0.98461H69.6583V2.43076ZM80.6491 2.43076L79.2104 2.57708L82.6812 36.7063L84.1199 36.56L85.5586 36.4137L82.0879 2.28445L80.6491 2.43076ZM84.1199 36.56L85.5541 36.7457L89.9648 2.68882L88.5307 2.50307L87.0965 2.31733L82.6857 36.3743L84.1199 36.56ZM88.5307 2.50307V3.94923H97.1353V2.50307V1.05692H88.5307V2.50307ZM97.1353 2.50307L95.7025 2.69902L100.33 36.539L101.763 36.3431L103.196 36.1471L98.5681 2.30713L97.1353 2.50307ZM101.763 36.3431L103.201 36.4933L106.744 2.58104L105.306 2.43076L103.868 2.28049L100.325 36.1928L101.763 36.3431ZM105.306 2.43076V3.87692H116.152V2.43076V0.98461H105.306V2.43076ZM116.152 2.43076L114.716 2.25881L107.702 60.828L109.138 61L110.574 61.172L117.588 2.60272L116.152 2.43076ZM109.138 61V59.5538H97.8583V61V62.4462H109.138V61ZM97.8583 61L99.2903 60.7979L94.3011 25.4395L92.8691 25.6415L91.4371 25.8436L96.4264 61.2021L97.8583 61ZM92.8691 25.6415L91.4356 25.451L86.7356 60.8094L88.1691 61L89.6027 61.1906L94.3027 25.8321L92.8691 25.6415ZM88.1691 61V59.5538H76.7445V61V62.4462H88.1691V61ZM136.697 61H135.25V62.4462H136.697V61ZM136.697 2.43076V0.98461H135.25V2.43076H136.697ZM149.64 2.43076H151.086V0.98461H149.64V2.43076ZM149.64 61V62.4462H151.086V61H149.64ZM136.697 61H138.143V2.43076H136.697H135.25V61H136.697ZM136.697 2.43076V3.87692H149.64V2.43076V0.98461H136.697V2.43076ZM149.64 2.43076H148.194V61H149.64H151.086V2.43076H149.64ZM149.64 61V59.5538H136.697V61V62.4462H149.64V61ZM161.482 61H160.036V62.4462H161.482V61ZM161.482 12.0477H162.928V10.6015H161.482V12.0477ZM152.661 12.0477H151.215V13.4938H152.661V12.0477ZM152.661 2.43076V0.98461H151.215V2.43076H152.661ZM183.247 2.43076H184.693V0.98461H183.247V2.43076ZM183.247 12.0477V13.4938H184.693V12.0477H183.247ZM174.498 12.0477V10.6015H173.052V12.0477H174.498ZM174.498 61V62.4462H175.944V61H174.498ZM161.482 61H162.928V12.0477H161.482H160.036V61H161.482ZM161.482 12.0477V10.6015H152.661V12.0477V13.4938H161.482V12.0477ZM152.661 12.0477H154.107V2.43076H152.661H151.215V12.0477H152.661ZM152.661 2.43076V3.87692H183.247V2.43076V0.98461H152.661V2.43076ZM183.247 2.43076H181.801V12.0477H183.247H184.693V2.43076H183.247ZM183.247 12.0477V10.6015H174.498V12.0477V13.4938H183.247V12.0477ZM174.498 12.0477H173.052V61H174.498H175.944V12.0477H174.498ZM174.498 61V59.5538H161.482V61V62.4462H174.498V61ZM207.266 61L205.83 61.1737L205.984 62.4462H207.266V61ZM200.179 2.43076V0.98461H198.548L198.744 2.60446L200.179 2.43076ZM211.17 2.43076L212.609 2.28445L212.477 0.98461H211.17V2.43076ZM214.641 36.56L213.202 36.7063L216.075 36.7457L214.641 36.56ZM219.052 2.50307V1.05692H217.781L217.618 2.31733L219.052 2.50307ZM227.656 2.50307L229.089 2.30713L228.918 1.05692H227.656V2.50307ZM232.284 36.3431L230.851 36.539L233.722 36.4933L232.284 36.3431ZM235.827 2.43076V0.98461H234.524L234.389 2.28049L235.827 2.43076ZM246.673 2.43076L248.109 2.60272L248.303 0.98461H246.673V2.43076ZM239.659 61V62.4462H240.943L241.095 61.172L239.659 61ZM228.379 61L226.947 61.2021L227.123 62.4462H228.379V61ZM223.39 25.6415L224.822 25.4395L221.957 25.451L223.39 25.6415ZM218.69 61V62.4462H219.957L220.124 61.1906L218.69 61ZM207.266 61L208.701 60.8263L201.615 2.25706L200.179 2.43076L198.744 2.60446L205.83 61.1737L207.266 61ZM200.179 2.43076V3.87692H211.17V2.43076V0.98461H200.179V2.43076ZM211.17 2.43076L209.731 2.57708L213.202 36.7063L214.641 36.56L216.08 36.4137L212.609 2.28445L211.17 2.43076ZM214.641 36.56L216.075 36.7457L220.486 2.68882L219.052 2.50307L217.618 2.31733L213.207 36.3743L214.641 36.56ZM219.052 2.50307V3.94923H227.656V2.50307V1.05692H219.052V2.50307ZM227.656 2.50307L226.223 2.69902L230.851 36.539L232.284 36.3431L233.717 36.1471L229.089 2.30713L227.656 2.50307ZM232.284 36.3431L233.722 36.4933L237.265 2.58104L235.827 2.43076L234.389 2.28049L230.846 36.1928L232.284 36.3431ZM235.827 2.43076V3.87692H246.673V2.43076V0.98461H235.827V2.43076ZM246.673 2.43076L245.237 2.25881L238.223 60.828L239.659 61L241.095 61.172L248.109 2.60272L246.673 2.43076ZM239.659 61V59.5538H228.379V61V62.4462H239.659V61ZM228.379 61L229.811 60.7979L224.822 25.4395L223.39 25.6415L221.958 25.8436L226.947 61.2021L228.379 61ZM223.39 25.6415L221.957 25.451L217.257 60.8094L218.69 61L220.124 61.1906L224.824 25.8321L223.39 25.6415ZM218.69 61V59.5538H207.266V61V62.4462H218.69V61ZM257.177 59.5538L256.43 60.7918L256.43 60.7918L257.177 59.5538ZM251.682 10.4569L250.334 9.93166L250.334 9.93166L251.682 10.4569ZM257.177 3.94923L257.907 5.19753L257.916 5.19244L257.925 5.18723L257.177 3.94923ZM278.074 3.94923L277.327 5.18723L277.34 5.19547L277.354 5.20341L278.074 3.94923ZM283.642 10.4569L282.294 10.9822L282.294 10.9822L283.642 10.4569ZM283.642 52.9015L282.291 52.3839L282.291 52.3839L283.642 52.9015ZM278.074 59.5538L277.337 58.3097L277.327 58.3158L278.074 59.5538ZM270.554 51.6723L269.494 50.6883L269.494 50.6883L270.554 51.6723ZM271.783 49.0692L273.206 49.3279L273.206 49.3279L271.783 49.0692ZM271.783 14.3615L270.36 14.6202L270.363 14.6321L271.783 14.3615ZM270.554 11.7585L269.494 12.7425L269.494 12.7425L270.554 11.7585ZM264.769 11.7585L265.829 12.7425L265.829 12.7425L264.769 11.7585ZM263.54 14.3615L264.961 14.6321L264.963 14.6202L263.54 14.3615ZM263.468 49.0692L262.035 49.2646L262.039 49.2964L262.045 49.3279L263.468 49.0692ZM264.625 51.6723L263.527 52.6135L263.545 52.6353L263.565 52.6563L264.625 51.6723ZM267.589 61.8677V60.4215C263.35 60.4215 260.172 59.6727 257.925 58.3158L257.177 59.5538L256.43 60.7918C259.292 62.5201 263.055 63.3138 267.589 63.3138V61.8677ZM257.177 59.5538L257.925 58.3158C255.656 56.9463 254.03 54.988 253.032 52.3839L251.682 52.9015L250.331 53.4192C251.551 56.5997 253.588 59.0763 256.43 60.7918L257.177 59.5538ZM251.682 52.9015L253.032 52.3839C252.002 49.6972 251.465 46.4347 251.465 42.5615H250.019H248.572C248.572 46.6904 249.144 50.3213 250.331 53.4192L251.682 52.9015ZM250.019 42.5615H251.465V20.7969H250.019H248.572V42.5615H250.019ZM250.019 20.7969H251.465C251.465 16.872 252.003 13.614 253.029 10.9822L251.682 10.4569L250.334 9.93166C249.143 12.988 248.572 16.6234 248.572 20.7969H250.019ZM251.682 10.4569L253.029 10.9822C254.023 8.43147 255.643 6.52183 257.907 5.19753L257.177 3.94923L256.447 2.70093C253.601 4.36534 251.557 6.79416 250.334 9.93166L251.682 10.4569ZM257.177 3.94923L257.925 5.18723C260.172 3.83037 263.35 3.08153 267.589 3.08153V1.63538V0.189227C263.055 0.189227 259.292 0.982957 256.43 2.71123L257.177 3.94923ZM267.589 1.63538V3.08153C271.88 3.08153 275.081 3.83159 277.327 5.18723L278.074 3.94923L278.821 2.71123C275.957 0.981739 272.168 0.189227 267.589 0.189227V1.63538ZM278.074 3.94923L277.354 5.20341C279.666 6.53047 281.303 8.43982 282.294 10.9822L283.642 10.4569L284.989 9.93166C283.763 6.78581 281.688 4.3567 278.794 2.69505L278.074 3.94923ZM283.642 10.4569L282.294 10.9822C283.32 13.614 283.859 16.872 283.859 20.7969H285.305H286.751C286.751 16.6234 286.181 12.988 284.989 9.93166L283.642 10.4569ZM285.305 20.7969H283.859V42.5615H285.305H286.751V20.7969H285.305ZM285.305 42.5615H283.859C283.859 46.4347 283.321 49.6972 282.291 52.3839L283.642 52.9015L284.992 53.4192C286.18 50.3213 286.751 46.6904 286.751 42.5615H285.305ZM283.642 52.9015L282.291 52.3839C281.296 54.9797 279.652 56.9375 277.337 58.3097L278.074 59.5538L278.811 60.798C281.702 59.085 283.77 56.608 284.992 53.4192L283.642 52.9015ZM278.074 59.5538L277.327 58.3158C275.081 59.6715 271.88 60.4215 267.589 60.4215V61.8677V63.3138C272.168 63.3138 275.957 62.5213 278.821 60.7918L278.074 59.5538ZM267.589 52.6846V54.1308C269.152 54.1308 270.607 53.7405 271.614 52.6563L270.554 51.6723L269.494 50.6883C269.248 50.9539 268.726 51.2385 267.589 51.2385V52.6846ZM270.554 51.6723L271.614 52.6563C272.458 51.7468 272.972 50.6128 273.206 49.3279L271.783 49.0692L270.36 48.8105C270.208 49.6467 269.903 50.248 269.494 50.6883L270.554 51.6723ZM271.783 49.0692L273.206 49.3279C273.415 48.1797 273.519 47.0084 273.519 45.8154H272.072H270.626C270.626 46.8398 270.537 47.8378 270.36 48.8105L271.783 49.0692ZM272.072 45.8154H273.519V17.6154H272.072H270.626V45.8154H272.072ZM272.072 17.6154H273.519C273.519 16.3785 273.416 15.2025 273.204 14.0909L271.783 14.3615L270.363 14.6321C270.537 15.5452 270.626 16.5384 270.626 17.6154H272.072ZM271.783 14.3615L273.206 14.1028C272.972 12.818 272.458 11.6839 271.614 10.7744L270.554 11.7585L269.494 12.7425C269.903 13.1827 270.208 13.7841 270.36 14.6202L271.783 14.3615ZM270.554 11.7585L271.614 10.7744C270.607 9.69029 269.152 9.3 267.589 9.3V10.7461V12.1923C268.726 12.1923 269.248 12.4769 269.494 12.7425L270.554 11.7585ZM267.589 10.7461V9.3C266.085 9.3 264.698 9.71017 263.71 10.7744L264.769 11.7585L265.829 12.7425C266.094 12.457 266.588 12.1923 267.589 12.1923V10.7461ZM264.769 11.7585L263.71 10.7744C262.865 11.6839 262.351 12.818 262.117 14.1028L263.54 14.3615L264.963 14.6202C265.115 13.7841 265.42 13.1827 265.829 12.7425L264.769 11.7585ZM263.54 14.3615L262.12 14.0909C261.908 15.2025 261.805 16.3785 261.805 17.6154H263.251H264.697C264.697 16.5384 264.787 15.5452 264.961 14.6321L263.54 14.3615ZM263.251 17.6154H261.805V45.8154H263.251H264.697V17.6154H263.251ZM263.251 45.8154H261.805C261.805 46.9871 261.881 48.1371 262.035 49.2646L263.468 49.0692L264.901 48.8738C264.765 47.8803 264.697 46.8611 264.697 45.8154H263.251ZM263.468 49.0692L262.045 49.3279C262.274 50.5871 262.749 51.7064 263.527 52.6135L264.625 51.6723L265.723 50.7312C265.343 50.2885 265.047 49.6724 264.891 48.8105L263.468 49.0692ZM264.625 51.6723L263.565 52.6563C264.572 53.7405 266.026 54.1308 267.589 54.1308V52.6846V51.2385C266.453 51.2385 265.931 50.9539 265.684 50.6883L264.625 51.6723ZM291.013 61H289.566V62.4462H291.013V61ZM291.013 2.43076V0.98461H289.566V2.43076H291.013ZM324.129 8.4323L322.946 9.26331L322.956 9.27772L322.966 9.29188L324.129 8.4323ZM326.009 24.34L324.593 24.0494L324.593 24.0494L326.009 24.34ZM323.84 29.2569L322.688 28.3829L322.683 28.3892L323.84 29.2569ZM319.429 32.6554L318.809 31.3491L317.705 31.8735L318.038 33.0494L319.429 32.6554ZM327.456 61V62.4462H329.368L328.847 60.606L327.456 61ZM314.079 61L312.674 61.3444L312.944 62.4462H314.079V61ZM307.643 34.7523L309.048 34.4079L308.778 33.3062H307.643V34.7523ZM303.956 34.7523V33.3062H302.509V34.7523H303.956ZM303.956 61V62.4462H305.402V61H303.956ZM303.956 27.3046H302.509V28.7508H303.956V27.3046ZM311.837 26.3646L312.598 27.5942L312.619 27.5814L312.639 27.5679L311.837 26.3646ZM313.934 23.5446L312.567 23.0716L312.562 23.0876L312.557 23.1039L313.934 23.5446ZM313.211 13.2046L312.001 13.9971L312.001 13.9971L313.211 13.2046ZM303.956 11.1077V9.66153H302.509V11.1077H303.956ZM291.013 61H292.459V2.43076H291.013H289.566V61H291.013ZM291.013 2.43076V3.87692H307.137V2.43076V0.98461H291.013V2.43076ZM307.137 2.43076V3.87692C310.99 3.87692 314.266 4.30048 316.989 5.11747L317.405 3.7323L317.82 2.34714C314.759 1.42874 311.19 0.98461 307.137 0.98461V2.43076ZM317.405 3.7323L316.989 5.11747C319.601 5.90089 321.559 7.28793 322.946 9.26331L324.129 8.4323L325.313 7.6013C323.518 5.04539 320.994 3.2991 317.82 2.34714L317.405 3.7323ZM324.129 8.4323L322.966 9.29188C324.352 11.1658 325.142 13.9734 325.142 17.9046H326.588H328.034C328.034 13.6409 327.185 10.1337 325.292 7.57272L324.129 8.4323ZM326.588 17.9046H325.142C325.142 20.2408 324.955 22.2856 324.593 24.0494L326.009 24.34L327.426 24.6306C327.836 22.6344 328.034 20.3889 328.034 17.9046H326.588ZM326.009 24.34L324.593 24.0494C324.246 25.7377 323.606 27.1729 322.688 28.3829L323.84 29.2569L324.992 30.131C326.195 28.5451 327.001 26.7023 327.426 24.6306L326.009 24.34ZM323.84 29.2569L322.683 28.3892C321.844 29.5083 320.58 30.5077 318.809 31.3491L319.429 32.6554L320.05 33.9617C322.135 32.9713 323.812 31.7051 324.997 30.1246L323.84 29.2569ZM319.429 32.6554L318.038 33.0494L326.064 61.394L327.456 61L328.847 60.606L320.821 32.2614L319.429 32.6554ZM327.456 61V59.5538H314.079V61V62.4462H327.456V61ZM314.079 61L315.483 60.6556L309.048 34.4079L307.643 34.7523L306.239 35.0967L312.674 61.3444L314.079 61ZM307.643 34.7523V33.3062H303.956V34.7523V36.1985H307.643V34.7523ZM303.956 34.7523H302.509V61H303.956H305.402V34.7523H303.956ZM303.956 61V59.5538H291.013V61V62.4462H303.956V61ZM303.956 27.3046V28.7508H307.571V27.3046V25.8585H303.956V27.3046ZM307.571 27.3046V28.7508C309.538 28.7508 311.266 28.4193 312.598 27.5942L311.837 26.3646L311.076 25.135C310.384 25.5633 309.267 25.8585 307.571 25.8585V27.3046ZM311.837 26.3646L312.639 27.5679C313.936 26.7036 314.83 25.489 315.311 23.9854L313.934 23.5446L312.557 23.1039C312.267 24.0105 311.763 24.6759 311.035 25.1613L311.837 26.3646ZM313.934 23.5446L315.301 24.0177C315.801 22.5734 316.031 20.9111 316.031 19.0615H314.585H313.139C313.139 20.6828 312.935 22.0091 312.567 23.0716L313.934 23.5446ZM314.585 19.0615H316.031C316.031 16.4051 315.55 14.1358 314.421 12.4121L313.211 13.2046L312.001 13.9971C312.704 15.0693 313.139 16.7046 313.139 19.0615H314.585ZM313.211 13.2046L314.421 12.4121C313.126 10.4363 310.85 9.66153 308.149 9.66153V11.1077V12.5538C310.366 12.5538 311.464 13.177 312.001 13.9971L313.211 13.2046ZM308.149 11.1077V9.66153H303.956V11.1077V12.5538H308.149V11.1077ZM303.956 11.1077H302.509V27.3046H303.956H305.402V11.1077H303.956ZM332.2 61H330.754V62.4462H332.2V61ZM332.2 2.43076V0.98461H330.754V2.43076H332.2ZM345.143 2.43076H346.589V0.98461H345.143V2.43076ZM345.143 26.3646H343.697L346.48 26.9142L345.143 26.3646ZM354.977 2.43076V0.98461H354.007L353.639 1.88116L354.977 2.43076ZM367.63 2.43076L368.969 2.97918L369.786 0.98461H367.63V2.43076ZM356.784 28.8954L355.446 28.347L355.237 28.8574L355.421 29.3775L356.784 28.8954ZM368.137 61V62.4462H370.182L369.5 60.5179L368.137 61ZM354.977 61L353.602 61.4492L353.928 62.4462H354.977V61ZM346.517 35.1138L347.891 34.6646L346.901 31.6342L345.273 34.3755L346.517 35.1138ZM345.143 37.4277L343.899 36.6894L343.697 37.0307V37.4277H345.143ZM345.143 61V62.4462H346.589V61H345.143ZM332.2 61H333.646V2.43076H332.2H330.754V61H332.2ZM332.2 2.43076V3.87692H345.143V2.43076V0.98461H332.2V2.43076ZM345.143 2.43076H343.697V26.3646H345.143H346.589V2.43076H345.143ZM345.143 26.3646L346.48 26.9142L356.314 2.98037L354.977 2.43076L353.639 1.88116L343.805 25.815L345.143 26.3646ZM354.977 2.43076V3.87692H367.63V2.43076V0.98461H354.977V2.43076ZM367.63 2.43076L366.292 1.88235L355.446 28.347L356.784 28.8954L358.122 29.4438L368.969 2.97918L367.63 2.43076ZM356.784 28.8954L355.421 29.3775L366.773 61.4821L368.137 61L369.5 60.5179L358.148 28.4133L356.784 28.8954ZM368.137 61V59.5538H354.977V61V62.4462H368.137V61ZM354.977 61L356.351 60.5508L347.891 34.6646L346.517 35.1138L345.142 35.5631L353.602 61.4492L354.977 61ZM346.517 35.1138L345.273 34.3755L343.899 36.6894L345.143 37.4277L346.386 38.166L347.76 35.8522L346.517 35.1138ZM345.143 37.4277H343.697V61H345.143H346.589V37.4277H345.143ZM345.143 61V59.5538H332.2V61V62.4462H345.143V61ZM376.078 59.9154L375.401 61.1935L375.401 61.1935L376.078 59.9154ZM370.51 53.9138L369.195 54.514L369.199 54.5228L370.51 53.9138ZM368.413 43.2846L368.198 41.8545L366.925 42.0459L366.968 43.3328L368.413 43.2846ZM379.476 41.6215L380.922 41.5937L380.891 39.9465L379.261 40.1915L379.476 41.6215ZM380.127 47.6954L378.724 48.0461L378.729 48.0666L378.735 48.0869L380.127 47.6954ZM381.863 51.0215L380.876 52.0788L380.893 52.0946L380.91 52.1099L381.863 51.0215ZM387.213 50.66L385.906 50.0409L385.893 50.0696L385.881 50.0988L387.213 50.66ZM386.129 41.6938L384.936 42.5117L384.942 42.5198L384.947 42.5278L386.129 41.6938ZM381.429 36.6323L380.479 37.7226L380.484 37.7274L380.49 37.7322L381.429 36.6323ZM376.367 32.2215L377.317 31.1313L377.31 31.1248L377.302 31.1185L376.367 32.2215ZM370.727 25.8585L369.498 26.6205L369.507 26.635L369.516 26.6492L370.727 25.8585ZM372.896 5.6123L373.855 6.69517L373.865 6.68635L372.896 5.6123ZM392.42 3.22615L391.709 4.48572L391.716 4.48954L391.723 4.49329L392.42 3.22615ZM396.758 7.42L395.494 8.12231L395.506 8.14337L395.518 8.16403L396.758 7.42ZM398.783 12.8431L397.358 13.0924L397.362 13.1131L397.366 13.1337L398.783 12.8431ZM399.433 18.2662L399.61 19.7014L400.915 19.5404L400.879 18.226L399.433 18.2662ZM388.298 19.64L386.852 19.6802L386.897 21.27L388.475 21.0753L388.298 19.64ZM387.936 15.1569L386.499 15.3166L386.503 15.3468L386.507 15.3768L387.936 15.1569ZM386.924 12.1923L385.758 13.0475L385.772 13.0669L385.787 13.0858L386.924 12.1923ZM381.79 12.6262L380.535 11.9087L380.522 11.9317L380.509 11.9551L381.79 12.6262ZM382.513 21.0138L381.342 21.862L381.359 21.885L381.376 21.9073L382.513 21.0138ZM386.635 25.28L385.676 26.3626L385.679 26.3653L386.635 25.28ZM391.48 29.5462L390.524 30.6315L390.534 30.6401L390.544 30.6485L391.48 29.5462ZM397.915 36.9215L396.692 37.6938L396.697 37.7014L396.702 37.7089L397.915 36.9215ZM398.71 54.6369L399.969 55.3485L399.976 55.3369L398.71 54.6369ZM393.36 59.9154L392.651 58.6549L392.639 58.6614L393.36 59.9154ZM385.261 61.8677V60.4215C381.761 60.4215 378.949 59.7991 376.755 58.6373L376.078 59.9154L375.401 61.1935C378.124 62.6348 381.434 63.3138 385.261 63.3138V61.8677ZM376.078 59.9154L376.755 58.6373C374.595 57.4941 372.952 55.7393 371.822 53.3049L370.51 53.9138L369.199 54.5228C370.575 57.4874 372.644 59.7336 375.401 61.1935L376.078 59.9154ZM370.51 53.9138L371.826 53.3137C370.679 50.798 370 47.4609 369.859 43.2364L368.413 43.2846L366.968 43.3328C367.116 47.7852 367.835 51.5343 369.195 54.514L370.51 53.9138ZM368.413 43.2846L368.628 44.7147L379.691 43.0516L379.476 41.6215L379.261 40.1915L368.198 41.8545L368.413 43.2846ZM379.476 41.6215L378.031 41.6493C378.08 44.2102 378.302 46.3555 378.724 48.0461L380.127 47.6954L381.53 47.3446C381.182 45.9502 380.97 44.0462 380.922 41.5937L379.476 41.6215ZM380.127 47.6954L378.735 48.0869C379.201 49.7419 379.874 51.1437 380.876 52.0788L381.863 51.0215L382.849 49.9643C382.405 49.5497 381.922 48.734 381.519 47.3038L380.127 47.6954ZM381.863 51.0215L380.91 52.1099C381.955 53.0241 383.213 53.48 384.61 53.48V52.0338V50.5877C383.887 50.5877 383.313 50.3688 382.815 49.9332L381.863 51.0215ZM384.61 52.0338V53.48C385.437 53.48 386.243 53.3415 386.948 52.9693C387.682 52.5822 388.225 51.9829 388.546 51.2212L387.213 50.66L385.881 50.0988C385.816 50.253 385.732 50.3407 385.598 50.4114C385.436 50.4972 385.134 50.5877 384.61 50.5877V52.0338ZM387.213 50.66L388.52 51.2791C389.046 50.1699 389.31 48.9944 389.31 47.7677H387.864H386.418C386.418 48.5656 386.249 49.3183 385.906 50.0409L387.213 50.66ZM387.864 47.7677H389.31C389.31 45.1202 388.672 42.7886 387.31 40.8599L386.129 41.6938L384.947 42.5278C385.9 43.877 386.418 45.5947 386.418 47.7677H387.864ZM386.129 41.6938L387.321 40.876C386.076 39.0603 384.416 37.281 382.368 35.5324L381.429 36.6323L380.49 37.7322C382.394 39.358 383.867 40.953 384.936 42.5117L386.129 41.6938ZM381.429 36.6323L382.379 35.542L377.317 31.1313L376.367 32.2215L375.417 33.3118L380.479 37.7226L381.429 36.6323ZM376.367 32.2215L377.302 31.1185C375.188 29.326 373.402 27.3094 371.938 25.0677L370.727 25.8585L369.516 26.6492C371.138 29.1317 373.111 31.3571 375.432 33.3246L376.367 32.2215ZM370.727 25.8585L371.956 25.0964C370.634 22.9644 369.932 20.279 369.932 16.9646H368.486H367.04C367.04 20.6882 367.831 23.932 369.498 26.6205L370.727 25.8585ZM368.486 16.9646H369.932C369.932 12.2961 371.303 8.95444 373.855 6.69513L372.896 5.6123L371.938 4.52948C368.609 7.47632 367.04 11.7029 367.04 16.9646H368.486ZM372.896 5.6123L373.865 6.68635C376.472 4.33551 380.093 3.08153 384.9 3.08153V1.63538V0.189227C379.583 0.189227 375.202 1.58653 371.928 4.53826L372.896 5.6123ZM384.9 1.63538V3.08153C387.889 3.08153 390.122 3.59049 391.709 4.48572L392.42 3.22615L393.13 1.96658C390.957 0.740781 388.177 0.189227 384.9 0.189227V1.63538ZM392.42 3.22615L391.723 4.49329C393.439 5.43735 394.676 6.65015 395.494 8.12231L396.758 7.42L398.022 6.71768C396.912 4.71907 395.256 3.13597 393.116 1.95901L392.42 3.22615ZM396.758 7.42L395.518 8.16403C396.439 9.69982 397.051 11.3399 397.358 13.0924L398.783 12.8431L400.207 12.5938C399.839 10.4898 399.101 8.51454 397.998 6.67596L396.758 7.42ZM398.783 12.8431L397.366 13.1337C397.736 14.9397 397.942 16.6634 397.988 18.3063L399.433 18.2662L400.879 18.226C400.828 16.3982 400.6 14.5064 400.199 12.5525L398.783 12.8431ZM399.433 18.2662L399.256 16.8309L388.121 18.2047L388.298 19.64L388.475 21.0753L399.61 19.7014L399.433 18.2662ZM388.298 19.64L389.744 19.5998C389.694 17.8245 389.57 16.267 389.366 14.937L387.936 15.1569L386.507 15.3768C386.688 16.5535 386.805 17.9847 386.852 19.6802L388.298 19.64ZM387.936 15.1569L389.374 14.9972C389.214 13.5582 388.824 12.2692 388.061 11.2988L386.924 12.1923L385.787 13.0858C386.085 13.4651 386.37 14.1526 386.499 15.3166L387.936 15.1569ZM386.924 12.1923L388.09 11.3371C387.223 10.1542 385.913 9.66153 384.466 9.66153V11.1077V12.5538C385.236 12.5538 385.565 12.7843 385.758 13.0475L386.924 12.1923ZM384.466 11.1077V9.66153C382.763 9.66153 381.381 10.4273 380.535 11.9087L381.79 12.6262L383.046 13.3436C383.356 12.8003 383.758 12.5538 384.466 12.5538V11.1077ZM381.79 12.6262L380.509 11.9551C379.885 13.1475 379.549 14.3884 379.549 15.6631H380.995H382.441C382.441 14.9132 382.635 14.1294 383.071 13.2972L381.79 12.6262ZM380.995 15.6631H379.549C379.549 18.058 380.11 20.1603 381.342 21.862L382.513 21.0138L383.685 20.1657C382.892 19.0715 382.441 17.6066 382.441 15.6631H380.995ZM382.513 21.0138L381.376 21.9073C382.504 23.3426 383.943 24.8274 385.676 26.3626L386.635 25.28L387.594 24.1974C385.953 22.7439 384.644 21.3845 383.651 20.1204L382.513 21.0138ZM386.635 25.28L385.679 26.3653L390.524 30.6315L391.48 29.5462L392.435 28.4608L387.591 24.1947L386.635 25.28ZM391.48 29.5462L390.544 30.6485C392.99 32.7259 395.038 35.0739 396.692 37.6938L397.915 36.9215L399.138 36.1493C397.322 33.2738 395.079 30.7049 392.416 28.4438L391.48 29.5462ZM397.915 36.9215L396.702 37.7089C398.301 40.1723 399.144 43.281 399.144 47.1169H400.59H402.036C402.036 42.8544 401.096 39.1662 399.128 36.1341L397.915 36.9215ZM400.59 47.1169H399.144C399.144 49.6352 398.572 51.8987 397.445 53.9369L398.71 54.6369L399.976 55.3369C401.355 52.8439 402.036 50.094 402.036 47.1169H400.59ZM398.71 54.6369L397.451 53.9253C396.333 55.9031 394.745 57.477 392.651 58.655L393.36 59.9154L394.069 61.1758C396.602 59.7506 398.58 57.8056 399.969 55.3485L398.71 54.6369ZM393.36 59.9154L392.639 58.6614C390.633 59.8141 388.192 60.4215 385.261 60.4215V61.8677V63.3138C388.597 63.3138 391.555 62.6197 394.08 61.1694L393.36 59.9154Z" fill="url(#paint1_linear_106_2010)" mask="url(#path-1-outside-1_106_2010)"/>
<defs>
<linearGradient id="paint0_linear_106_2010" x1="194.031" y1="-2.56992" x2="194.031" y2="56.8771" gradientUnits="userSpaceOnUse">
<stop stop-color="#A93F00"/>
<stop offset="1" stop-color="#431900"/>
</linearGradient>
<linearGradient id="paint1_linear_106_2010" x1="194.031" y1="-2.56992" x2="194.031" y2="56.8771" gradientUnits="userSpaceOnUse">
<stop stop-color="#A93F00"/>
<stop offset="1" stop-color="#431900"/>
</linearGradient>
</defs>
</svg>
